<svg xmlns="http://www.w3.org/2000/svg" viewBox="0 0 256 256">
  <rect width="256" height="256" rx="64" fill="#fff7f2"/>
  <circle cx="128" cy="128" r="92" fill="#f8d8df"/>
  <path d="M128 56c13 27 18 44 18 56 0 12-8 20-18 20s-18-8-18-20c0-12 5-29 18-56Z" fill="#cb6f86"/>
  <path d="M195 111c-29 8-47 10-58 7-11-3-17-13-14-22 3-10 15-16 27-13 11 3 26 12 45 28Z" fill="#d39a4a"/>
  <path d="M61 111c19-16 34-25 45-28 12-3 24 3 27 13 3 9-3 19-14 22-11 3-29 1-58-7Z" fill="#d39a4a"/>
  <path d="M168 172c-11-28-22-43-31-49-9-6-20-4-25 4-5 9-3 21 7 28 8 6 25 11 49 17Z" fill="#cb6f86"/>
  <path d="M88 172c24-6 41-11 49-17 10-7 12-19 7-28-5-8-16-10-25-4-9 6-20 21-31 49Z" fill="#cb6f86"/>
</svg>
