<?xml version="1.0" encoding="UTF-8"?>
<svg version="1.1" xmlns="http://www.w3.org/2000/svg" width="2000" height="2000">
<path d="M0 0 C660 0 1320 0 2000 0 C2000 660 2000 1320 2000 2000 C1340 2000 680 2000 0 2000 C0 1340 0 680 0 0 Z " fill="#FBF3E4" transform="translate(0,0)"/>
<path d="M0 0 C4.93125144 1.03092365 12.6150934 2.8416559 16.2421875 6.46875 C17.9746875 6.5925 17.9746875 6.5925 19.7421875 6.71875 C24.02643386 7.21832643 26.94122581 8.74165094 30.609375 10.93359375 C33.83541459 12.81465244 37.15111821 14.4922528 40.4921875 16.15625 C41.65234375 16.73761719 42.8125 17.31898438 44.0078125 17.91796875 C46.72455772 19.22056277 49.44743972 20.35181793 52.2421875 21.46875 C55.71268787 23.58122849 58.94485316 25.93599919 62.1171875 28.46875 C62.71273438 28.943125 63.30828125 29.4175 63.921875 29.90625 C65.2421875 31.46875 65.2421875 31.46875 65.2421875 35.46875 C66.5725 35.5615625 66.5725 35.5615625 67.9296875 35.65625 C72.02925219 36.6618036 73.297008 38.5235705 76.2421875 41.46875 C77.36882812 41.70851563 78.49546875 41.94828125 79.65625 42.1953125 C83.60159479 43.59638265 84.56120523 44.75265662 86.34570312 48.47460938 C86.62091797 49.11205078 86.89613281 49.74949219 87.1796875 50.40625 C87.48197266 51.03982422 87.78425781 51.67339844 88.09570312 52.32617188 C89.43022641 55.2040214 90.2421875 57.2653009 90.2421875 60.46875 C90.9021875 60.46875 91.5621875 60.46875 92.2421875 60.46875 C92.77005859 61.48582031 92.77005859 61.48582031 93.30859375 62.5234375 C96.46339061 68.47060025 99.87309719 74.0213296 103.82421875 79.47265625 C106.96453887 83.89332728 106.82715901 88.73787108 107.22851562 93.99609375 C107.7349831 99.13248076 108.87894102 102.36571363 112.2421875 106.46875 C113.2321875 107.12875 114.2221875 107.78875 115.2421875 108.46875 C115.796875 110.38671875 115.796875 110.38671875 116.1171875 112.65625 C116.76961582 116.1714888 117.62227656 118.31283504 119.8671875 121.09375 C121.99679746 123.80301711 122.2534205 124.55299751 122.7421875 128.21875 C122.2421875 131.46875 122.2421875 131.46875 120.6796875 132.96875 C119.968125 133.71125 119.968125 133.71125 119.2421875 134.46875 C119.40469643 138.53147321 120.40071947 142.04513757 121.7421875 145.84375 C123.34771423 150.39404772 123.86106011 154.6665449 124.2421875 159.46875 C125.2321875 159.46875 126.2221875 159.46875 127.2421875 159.46875 C127.9021875 159.46875 128.5621875 159.46875 129.2421875 159.46875 C128.7265625 158.911875 128.2109375 158.355 127.6796875 157.78125 C126.2421875 155.46875 126.2421875 155.46875 126.37109375 152.97265625 C127.2421875 150.46875 127.2421875 150.46875 129.2734375 149.1328125 C130.49546875 148.61847656 130.49546875 148.61847656 131.7421875 148.09375 C134.19145707 146.90852989 134.19145707 146.90852989 136.2421875 145.46875 C137.42599116 142.18811606 137.42599116 142.18811606 137.2421875 138.46875 C137.47228217 127.23594643 143.82306231 119.78822856 150.41015625 111.109375 C153.85906725 106.13823676 155.51492697 102.54399958 155.4296875 96.46875 C155.90502474 88.1028145 159.81736663 82.27483831 164.2421875 75.46875 C172.58727261 62.29276323 172.58727261 62.29276323 178.3046875 47.84375 C178.76875 46.668125 178.76875 46.668125 179.2421875 45.46875 C181.3671875 44.59375 181.3671875 44.59375 183.2421875 44.46875 C183.3040625 43.540625 183.3659375 42.6125 183.4296875 41.65625 C184.2421875 38.46875 184.2421875 38.46875 186.6796875 36.71875 C187.5253125 36.30625 188.3709375 35.89375 189.2421875 35.46875 C191.63921095 33.07172655 191.50434821 32.24467047 191.8671875 28.96875 C193.0841988 22.33747583 196.73544301 18.29030385 201.2421875 13.46875 C202.0465625 12.49808594 202.0465625 12.49808594 202.8671875 11.5078125 C206.45942407 7.68208056 209.46241564 7.03609182 214.6796875 6.84375 C223.32091021 7.28917385 228.80391881 10.18035873 234.6328125 16.50390625 C241.02092232 24.30298208 242.07895955 30.46140863 241.2421875 40.46875 C241.14679688 41.61988281 241.05140625 42.77101563 240.953125 43.95703125 C240.10495618 51.43255839 238.23881052 57.70679272 235.0703125 64.53125 C234.01493673 68.27484706 234.94573208 69.84577869 236.2421875 73.46875 C237.06290346 80.07019475 235.64550703 85.12659724 232.9296875 91.09375 C232.4665918 92.16109375 232.4665918 92.16109375 231.99414062 93.25 C231.3835799 94.65364697 230.76432171 96.05354795 230.13574219 97.44921875 C229.54463384 98.78518822 228.97702119 100.1318261 228.43457031 101.48828125 C226.51180665 106.2890039 226.51180665 106.2890039 223.6171875 108.21875 C220.24802188 111.41059111 220.69461481 114.15346279 220.47265625 118.640625 C220.07611375 123.506672 218.90186824 127.91279931 215.2421875 131.34375 C214.5821875 131.715 213.9221875 132.08625 213.2421875 132.46875 C211.7571875 133.45875 211.7571875 133.45875 210.2421875 134.46875 C210.7578125 134.984375 211.2734375 135.5 211.8046875 136.03125 C213.2421875 138.46875 213.2421875 138.46875 213.1796875 141.90625 C211.2706937 149.16042644 206.33506154 151.95856167 200.2890625 155.8203125 C199.61359375 156.36429688 198.938125 156.90828125 198.2421875 157.46875 C198.2421875 158.45875 198.2421875 159.44875 198.2421875 160.46875 C196.85829359 164.43537616 194.28961573 166.18317882 190.9921875 168.65625 C185.04375457 173.39628568 180.24738532 178.29331291 178.4296875 185.84375 C177.2421875 188.46875 177.2421875 188.46875 175.19921875 189.25390625 C173.5575486 189.68977098 171.91561981 190.12466266 170.2734375 190.55859375 C169.603125 190.85894531 168.9328125 191.15929687 168.2421875 191.46875 C167.9121875 192.62375 167.5821875 193.77875 167.2421875 194.96875 C166.9121875 196.12375 166.5821875 197.27875 166.2421875 198.46875 C164.10040697 199.53964027 161.97447064 200.06965629 159.6640625 200.69140625 C151.82507265 203.20746912 146.37542346 210.3395866 141.05078125 216.2734375 C137.52755985 219.02733239 135.60465492 218.74108307 131.2421875 218.46875 C128.95927171 220.12386395 127.87347509 221.24905076 126.2421875 223.46875 C125.62730469 224.29375 125.01242187 225.11875 124.37890625 225.96875 C120.42360221 231.67580192 118.12099166 235.49242032 119.2421875 242.46875 C119.9021875 243.45875 120.5621875 244.44875 121.2421875 245.46875 C121.33203125 247.8515625 121.33203125 247.8515625 121.1796875 250.59375 C121.09572545 254.38192015 121.29354308 257.15928975 122.7421875 260.65625 C124.73626757 265.70118068 124.38507207 270.6445186 124.04296875 275.97338867 C123.90477504 278.23739036 123.90477504 278.23739036 124.2421875 281.46875 C124.89783691 281.86215576 125.55348633 282.25556152 126.22900391 282.66088867 C128.2421875 284.46875 128.2421875 284.46875 128.74389648 288.19897461 C128.76358844 289.75622428 128.76014988 291.31387313 128.73828125 292.87109375 C128.73973648 293.70403458 128.74119171 294.5369754 128.74269104 295.39515686 C128.74103002 297.16296879 128.72944596 298.93079488 128.70874023 300.69848633 C128.68012584 303.36539585 128.68805836 306.03027307 128.70117188 308.69726562 C128.68775786 318.00691582 128.22192248 326.54316671 125.2421875 335.46875 C126.44875 336.2421875 126.44875 336.2421875 127.6796875 337.03125 C130.2421875 339.46875 130.2421875 339.46875 131.3671875 342.53125 C131.21371437 347.36565371 129.58568695 350.35406666 127.4375 354.62109375 C126.2148037 357.53398788 125.882327 359.70929641 125.7421875 362.84375 C125.54658555 366.70688858 125.44204354 367.23891556 122.7421875 370.34375 C121.9171875 371.045 121.0921875 371.74625 120.2421875 372.46875 C119.18796604 375.40857081 119.18382807 378.02098025 119.3125 381.1171875 C119.52174489 393.31163453 117.87121425 402.07916631 111.88623047 412.72900391 C108.87537038 418.1162 106.38287034 423.42540149 104.3125 429.2265625 C104.07463776 429.88923126 103.83677551 430.55190002 103.59170532 431.23464966 C102.65190562 433.87648682 101.72268654 436.51995683 100.84429932 439.18292236 C97.3554889 449.75163911 97.3554889 449.75163911 94.44750977 451.62475586 C92.57421875 452.10546875 92.57421875 452.10546875 89.2421875 452.46875 C87.57151617 454.46540598 85.90465764 456.46526034 84.2421875 458.46875 C80.9296875 459.34375 80.9296875 459.34375 78.2421875 459.46875 C78.149375 460.7371875 78.149375 460.7371875 78.0546875 462.03125 C76.41529816 468.96712798 71.87676329 473.18006093 66.1171875 477.15625 C65.23268921 477.77137451 65.23268921 477.77137451 64.33032227 478.39892578 C58.25344742 482.57273625 51.99916254 486.48443874 45.72802734 490.3581543 C42.46822989 492.37890131 39.38524052 494.3526547 36.40234375 496.7734375 C33.89834757 498.73859906 31.75507057 499.01038548 28.69140625 499.640625 C24.16465117 501.17120248 20.27412156 504.00004086 16.29296875 506.59375 C10.94291705 509.88187396 6.48977569 511.352118 0.2421875 510.46875 C-1.42447917 509.46875 -3.09114583 508.46875 -4.7578125 507.46875 C-6.6759375 507.5615625 -6.6759375 507.5615625 -8.6328125 507.65625 C-12.09957216 507.78053006 -13.79548785 507.13977381 -16.5078125 504.96875 C-19.88159951 501.68803298 -22.52342473 498.05765722 -23.7578125 493.46875 C-23.0078125 490.46875 -23.0078125 490.46875 -21.7578125 488.46875 C-22.38324951 488.2205249 -23.00868652 487.9722998 -23.65307617 487.71655273 C-26.8630335 485.81351458 -27.13331988 483.51857576 -28.15478516 480.06689453 C-29.16548746 475.7122816 -29.589483 471.35575094 -29.9453125 466.90625 C-30.02716797 465.99294922 -30.10902344 465.07964844 -30.19335938 464.13867188 C-30.39118731 461.91601687 -30.57916574 459.69301445 -30.7578125 457.46875 C-29.4275 456.6334375 -29.4275 456.6334375 -28.0703125 455.78125 C-24.88606713 453.61963364 -22.16890419 451.5138695 -19.7578125 448.46875 C-19.49166398 445.29070807 -19.49166398 445.29070807 -20.0078125 441.84375 C-20.38777546 432.16419354 -16.40884752 425.02847306 -11.92773438 416.65673828 C-10.76445832 414.48117901 -9.63494877 412.29226414 -8.5234375 410.08984375 C-8.20665039 409.46392334 -7.88986328 408.83800293 -7.56347656 408.19311523 C-6.63502638 406.29218879 -6.63502638 406.29218879 -5.7578125 403.46875 C-4.8709375 402.788125 -3.9840625 402.1075 -3.0703125 401.40625 C2.55592734 396.84407443 5.39649539 390.14310826 8.6328125 383.8046875 C9.06239258 382.96953613 9.49197266 382.13438477 9.93457031 381.27392578 C10.78930156 379.60372093 11.63291565 377.92776756 12.46386719 376.24560547 C15.10653657 371.05896881 17.81390654 367.28199194 22.2421875 363.46875 C22.9021875 363.46875 23.5621875 363.46875 24.2421875 363.46875 C24.0565625 362.355 23.8709375 361.24125 23.6796875 360.09375 C23.6395927 355.57907575 25.5050162 353.5422046 28.4921875 350.28125 C29.28109375 349.48332031 30.07 348.68539063 30.8828125 347.86328125 C35.33076972 343.66743427 35.33076972 343.66743427 37.6328125 338.23046875 C37.58640625 337.54597656 37.54 336.86148437 37.4921875 336.15625 C37.4096875 334.939375 37.3271875 333.7225 37.2421875 332.46875 C34.51463882 333.48183951 32.14420667 334.53088418 29.6796875 336.09375 C27.2421875 337.46875 27.2421875 337.46875 23.2421875 337.46875 C23.32919922 338.48195313 23.32919922 338.48195313 23.41796875 339.515625 C23.78946631 346.86066244 23.78946631 346.86066244 20.9921875 349.96875 C17.21877272 352.02697625 13.97560644 353.6686184 9.7421875 354.53125 C6.891144 355.12196278 4.0625879 355.7444199 1.2421875 356.46875 C0.9121875 357.78875 0.5821875 359.10875 0.2421875 360.46875 C-0.53125 360.47132813 -1.3046875 360.47390625 -2.1015625 360.4765625 C-11.24335349 360.81598543 -15.56977807 363.15546595 -21.84765625 369.62109375 C-30.48556726 377.81100937 -40.77193946 379.83818173 -52.04638672 382.75048828 C-58.60930155 384.48901659 -64.99088447 386.77303184 -71.3203125 389.21875 C-74.7578125 390.46875 -74.7578125 390.46875 -77.7578125 390.46875 C-77.7578125 391.12875 -77.7578125 391.78875 -77.7578125 392.46875 C-80.0678125 392.79875 -82.3778125 393.12875 -84.7578125 393.46875 C-85.0878125 392.80875 -85.4178125 392.14875 -85.7578125 391.46875 C-88.37256253 391.07390661 -88.37256253 391.07390661 -91.4453125 390.96875 C-95.90033 390.68269656 -99.55102847 390.0186178 -103.7578125 388.46875 C-104.4178125 388.79875 -105.0778125 389.12875 -105.7578125 389.46875 C-116.15605504 390.03791696 -125.7733022 389.75776516 -135.7578125 386.46875 C-135.7578125 385.80875 -135.7578125 385.14875 -135.7578125 384.46875 C-136.8303125 384.365625 -137.9028125 384.2625 -139.0078125 384.15625 C-143.75843879 383.57402404 -148.29612025 382.37046019 -152.91796875 381.15234375 C-155.23965425 380.5934786 -157.388951 380.24011736 -159.7578125 380.03125 C-162.7578125 379.46875 -162.7578125 379.46875 -164.32421875 377.6484375 C-168.53856955 373.87378622 -174.07001094 372.83568631 -179.40429688 371.20117188 C-186.03236887 369.05086195 -189.89827658 366.65652586 -193.5078125 360.46875 C-194.63594464 357.76123287 -195.33246925 355.3610841 -195.7578125 352.46875 C-197.0778125 352.13875 -198.3978125 351.80875 -199.7578125 351.46875 C-199.86664846 349.09249823 -199.94547946 346.72131024 -200.0078125 344.34375 C-200.04132813 343.67859375 -200.07484375 343.0134375 -200.109375 342.328125 C-200.20940327 337.22668315 -199.08773981 334.31373801 -195.7578125 330.46875 C-194.7678125 330.46875 -193.7778125 330.46875 -192.7578125 330.46875 C-192.7371875 329.334375 -192.7165625 328.2 -192.6953125 327.03125 C-191.57741919 318.33312127 -183.57722778 312.0816457 -177.578125 306.31640625 C-175.68958542 304.58991834 -175.68958542 304.58991834 -174.7578125 302.46875 C-174.04367188 302.6234375 -173.32953125 302.778125 -172.59375 302.9375 C-167.91058537 303.81478704 -163.48020864 304.31056844 -158.7578125 303.46875 C-156.70089343 301.95379923 -155.25235569 300.27492622 -153.5859375 298.34375 C-147.14075718 291.73330864 -137.00753701 290.43729671 -128.30761719 288.81176758 C-127.12474121 288.58976685 -127.12474121 288.58976685 -125.91796875 288.36328125 C-125.21293213 288.23800049 -124.50789551 288.11271973 -123.78149414 287.98364258 C-121.70245909 287.53588763 -121.70245909 287.53588763 -119.75341797 286.43212891 C-117.55335264 285.37004696 -116.09532792 285.20337584 -113.66796875 285.16015625 C-112.88945557 285.13687256 -112.11094238 285.11358887 -111.30883789 285.08959961 C-110.48762451 285.07034424 -109.66641113 285.05108887 -108.8203125 285.03125 C-101.67300225 284.77533084 -95.24017437 283.97437403 -88.32421875 282.08984375 C-85.7578125 281.46875 -85.7578125 281.46875 -81.7578125 281.46875 C-81.7578125 280.80875 -81.7578125 280.14875 -81.7578125 279.46875 C-79.98664063 279.52095703 -79.98664063 279.52095703 -78.1796875 279.57421875 C-76.62241008 279.60236232 -75.06511725 279.62966187 -73.5078125 279.65625 C-72.73050781 279.68138672 -71.95320313 279.70652344 -71.15234375 279.73242188 C-66.67662148 279.9274902 -66.67662148 279.9274902 -62.83203125 277.9921875 C-59.30296292 275.40021641 -55.08287778 275.97050978 -50.8203125 275.90625 C-42.96625834 276.04448592 -42.96625834 276.04448592 -35.7578125 273.46875 C-35.32984375 272.61023437 -34.901875 271.75171875 -34.4609375 270.8671875 C-33.89890625 270.07570313 -33.336875 269.28421875 -32.7578125 268.46875 C-29.86593571 268.10261109 -27.39296471 268.01711406 -24.5078125 268.09375 C-11.34754542 267.94667219 0.50812564 263.51373987 12.81640625 259.22265625 C23.02318978 255.79371067 33.58885018 254.71381487 44.2421875 253.46875 C45.2321875 250.49875 45.2321875 250.49875 46.2421875 247.46875 C44.54990592 245.14358263 43.20996853 243.64171616 40.30517578 243.12255859 C37.96085656 243.03833465 35.64893632 243.07151811 33.3046875 243.15625 C32.10682617 243.17075195 32.10682617 243.17075195 30.88476562 243.18554688 C26.87486818 243.26195751 23.16546596 243.5884384 19.2421875 244.46875 C17.7666966 244.6021857 16.28586091 244.68706715 14.8046875 244.71875 C13.72380859 244.75742187 13.72380859 244.75742187 12.62109375 244.796875 C10.2421875 244.46875 10.2421875 244.46875 7.67578125 242.9375 C2.64682197 240.78631833 -1.87580071 241.3581348 -7.2578125 241.71875 C-8.78728516 241.79802734 -8.78728516 241.79802734 -10.34765625 241.87890625 C-14.39072074 242.10498138 -18.27607534 242.37681132 -22.2578125 243.13671875 C-25.127536 243.5178539 -25.96232211 243.20223197 -28.2578125 241.53125 C-31.61756033 239.41667187 -33.71765917 238.79539111 -37.7578125 239.46875 C-39.39235043 240.44947276 -41.02539662 241.43310272 -42.640625 242.4453125 C-47.04402347 244.57389257 -51.94796526 244.91528813 -56.7578125 245.46875 C-57.9540625 245.63375 -59.1503125 245.79875 -60.3828125 245.96875 C-64.78813942 245.31610898 -67.72844648 243.38710832 -71.42578125 240.9765625 C-73.4895933 239.64217146 -75.53955862 238.51923345 -77.7578125 237.46875 C-78.7478125 238.12875 -79.7378125 238.78875 -80.7578125 239.46875 C-85.40352424 239.87626857 -88.80582788 239.55932997 -93.1953125 238.03125 C-97.93324164 236.46171929 -102.37533485 236.11707406 -107.3203125 235.90625 C-122.54304141 235.24056687 -122.54304141 235.24056687 -126.9453125 231.71875 C-127.8425 231.1 -127.8425 231.1 -128.7578125 230.46875 C-131.65774049 231.26825593 -131.65774049 231.26825593 -134.7578125 232.46875 C-142.97113556 233.73233816 -148.62032388 228.60740205 -155.0703125 224.21875 C-157.59969966 222.40780408 -157.59969966 222.40780408 -160.13671875 221.6875 C-163.51067801 220.11868437 -165.07539298 218.12086528 -167.3828125 215.21875 C-168.13820312 214.28546875 -168.89359375 213.3521875 -169.671875 212.390625 C-174.4388902 205.71323292 -175.78744645 200.56032985 -174.7578125 192.46875 C-173.33851654 187.82820881 -171.57958338 183.59248054 -167.7578125 180.46875 C-164.9607585 179.1803596 -162.1221611 178.06518889 -159.25390625 176.9453125 C-156.53740884 175.68610107 -156.53740884 175.68610107 -155.765625 172.90234375 C-155.43304688 172.09925781 -155.10046875 171.29617188 -154.7578125 170.46875 C-152.25390625 169.46484375 -152.25390625 169.46484375 -149.1953125 168.90625 C-144.51006139 168.02281514 -140.56861312 166.60329208 -136.26782227 164.62133789 C-96.17799956 146.21222856 -96.17799956 146.21222856 -80.23046875 150.08203125 C-77.028071 150.58288019 -74.79212579 149.87704416 -71.6953125 148.96875 C-65.18527971 147.06417546 -65.18527971 147.06417546 -61.7578125 148.46875 C-61.0978125 149.12875 -60.4378125 149.78875 -59.7578125 150.46875 C-54.70872899 150.72445488 -54.70872899 150.72445488 -49.7578125 149.96875 C-39.10330182 147.30512233 -24.19577501 151.31417047 -14.7578125 156.46875 C-12.69357521 158.02631087 -11.37946296 159.41465942 -9.7578125 161.46875 C-9.7578125 162.12875 -9.7578125 162.78875 -9.7578125 163.46875 C-8.8090625 163.55125 -7.8603125 163.63375 -6.8828125 163.71875 C0.91379679 164.85740288 7.62928152 167.98637672 13.2421875 173.46875 C13.9434375 174.4175 14.6446875 175.36625 15.3671875 176.34375 C19.15010229 181.12802459 24.99519901 183.58709276 30.2421875 186.46875 C31.91344472 187.46105897 33.58174714 188.4584453 35.2421875 189.46875 C35.5721875 188.746875 35.9021875 188.025 36.2421875 187.28125 C38.93674443 183.49202931 42.04717141 181.42385842 46.2421875 179.46875 C48.56816261 179.0874426 50.90130908 178.74414746 53.2421875 178.46875 C55.82674035 176.57341125 56.20494256 175.58048483 57.2421875 172.46875 C58.8921875 172.13875 60.5421875 171.80875 62.2421875 171.46875 C55.92517167 161.73401778 55.92517167 161.73401778 47.6796875 153.71875 C45.27879441 151.83606948 44.35920256 151.11391413 43.80859375 148.078125 C43.76465872 146.35173658 43.72808466 144.62514362 43.69921875 142.8984375 C42.82985997 138.27671816 38.86685948 136.09010147 35.2421875 133.46875 C32.41254205 131.01142632 31.39382413 129.94261448 30.2421875 126.34375 C29.9121875 125.395 29.5821875 124.44625 29.2421875 123.46875 C28.65050781 123.19289063 28.05882812 122.91703125 27.44921875 122.6328125 C24.36527146 121.00623499 22.96910376 118.77973937 20.9296875 115.96875 C20.53652344 115.43411133 20.14335937 114.89947266 19.73828125 114.34863281 C17.31275268 111.03124998 15.01994628 107.6380429 12.7421875 104.21875 C10.33595095 100.70755168 7.81475466 98.07731365 4.5546875 95.34375 C0.99919541 92.34492587 -0.86644655 89.90245046 -2.66796875 85.66015625 C-4.05730543 82.86654379 -5.86072125 80.56867087 -7.7578125 78.09375 C-13.33421519 70.5718486 -16.45683408 63.9055413 -15.7578125 54.46875 C-16.3765625 54.18 -16.9953125 53.89125 -17.6328125 53.59375 C-19.7578125 52.46875 -19.7578125 52.46875 -21.7578125 50.46875 C-23.82655284 49.8262265 -23.82655284 49.8262265 -25.7578125 49.46875 C-25.84513976 45.57305865 -25.89831435 41.67762018 -25.9453125 37.78125 C-25.97044922 36.67845703 -25.99558594 35.57566406 -26.02148438 34.43945312 C-26.03598633 32.8394043 -26.03598633 32.8394043 -26.05078125 31.20703125 C-26.07434692 29.73810425 -26.07434692 29.73810425 -26.09838867 28.23950195 C-25.70130463 25.0090311 -24.49604196 23.17988649 -22.7578125 20.46875 C-23.14184055 18.41170318 -23.14184055 18.41170318 -23.7578125 16.46875 C-22.30655144 11.91018764 -19.68782476 7.2428763 -15.7578125 4.46875 C-13.7578125 4.46875 -11.7578125 4.46875 -9.7578125 4.46875 C-8.9534375 3.80875 -8.1490625 3.14875 -7.3203125 2.46875 C-4.70893796 0.43060402 -3.30253368 -0.17613513 0 0 Z " fill="#AF6C70" transform="translate(412.7578125,766.53125)"/>
<path d="M0 0 C0.886875 0.804375 1.77375 1.60875 2.6875 2.4375 C3.30625 2.87707031 3.925 3.31664062 4.5625 3.76953125 C8.07340556 6.56551451 9.51511382 8.42246298 10.28125 12.93359375 C10.42423423 15.42815786 10.50625482 17.92715796 10.51953125 20.42578125 C10.35826421 23.55268704 10.35826421 23.55268704 12.6875 25.4375 C12.91023254 27.45748901 12.91023254 27.45748901 12.87036133 29.97216797 C12.85462822 31.38536819 12.85462822 31.38536819 12.83857727 32.82711792 C12.81579208 33.85096588 12.7930069 34.87481384 12.76953125 35.9296875 C12.74266487 37.51416183 12.74266487 37.51416183 12.71525574 39.13064575 C12.67397539 41.37528398 12.62737457 43.61982958 12.57592773 45.86425781 C12.50107652 49.26361006 12.45154427 52.6626664 12.40429688 56.0625 C12.36092724 58.2474272 12.31605085 60.4323251 12.26953125 62.6171875 C12.2505352 64.12259598 12.2505352 64.12259598 12.2311554 65.65841675 C12.00414907 74.07859661 11.26696681 83.34565117 6.125 90.3125 C2.36946899 95.62906498 2.28151413 102.1249916 1.6875 108.4375 C0.511875 108.80875 0.511875 108.80875 -0.6875 109.1875 C-3.75502576 110.64822655 -4.10864843 111.35843133 -5.3125 114.4375 C-5.57557654 116.52080564 -5.57557654 116.52080564 -5.6171875 118.67578125 C-6.12158878 124.00911508 -8.32024517 127.37608218 -11.4375 131.625 C-12.12972656 132.63336914 -12.12972656 132.63336914 -12.8359375 133.66210938 C-16.2186548 138.434157 -20.46656719 144.29623301 -26.30102539 146.02758789 C-28.25 146.3125 -28.25 146.3125 -31.3125 146.4375 C-31.70695312 147.55318359 -31.70695312 147.55318359 -32.109375 148.69140625 C-35.29003285 155.95115453 -41.10421782 159.61078645 -48.25 162.5 C-49.46300781 162.97050781 -50.67601562 163.44101562 -51.92578125 163.92578125 C-55.16349065 165.37098718 -57.30114332 166.85847816 -59.9375 169.1875 C-64.17275867 172.80528171 -67.94125662 173.4229038 -73.41796875 173.85546875 C-76.46981266 174.27048928 -76.46981266 174.27048928 -79.140625 176.39453125 C-83.62642297 179.2837829 -87.91469918 179.57228478 -93.12304688 180.21484375 C-98.69485693 181.01861332 -102.11166511 182.51183925 -105.6171875 187.171875 C-106.68292162 190.64449181 -106.52001544 194.09490483 -106.4375 197.6875 C-106.42396484 198.80511719 -106.42396484 198.80511719 -106.41015625 199.9453125 C-106.38668358 201.77618059 -106.35081525 203.60688238 -106.3125 205.4375 C-102.24502975 204.84907754 -99.38999372 203.54357114 -95.875 201.4375 C-94.83214844 200.81359375 -93.78929687 200.1896875 -92.71484375 199.546875 C-88.49857171 196.95566304 -84.33954582 194.27280274 -80.20922852 191.546875 C-71.72069057 185.98794356 -71.72069057 185.98794356 -67.125 184.9375 C-65.19721184 184.58177278 -65.19721184 184.58177278 -63.96850586 182.93334961 C-60.90185588 180.16328261 -56.819416 180.96759628 -52.875 181 C-52.01583984 180.98001953 -51.15667969 180.96003906 -50.27148438 180.93945312 C-43.99314703 180.94432383 -43.99314703 180.94432383 -40.81640625 183.24609375 C-38.52444057 186.58581516 -37.1986046 189.39086354 -37.3125 193.4375 C-38.45742103 196.3618766 -39.91960496 198.99161924 -41.44921875 201.734375 C-44.29436334 207.07109869 -46.03126328 212.86674401 -47.95092773 218.58300781 C-48.36967163 219.8258252 -48.36967163 219.8258252 -48.796875 221.09375 C-49.04147461 221.83431641 -49.28607422 222.57488281 -49.53808594 223.33789062 C-50.3125 225.4375 -50.3125 225.4375 -51.43457031 227.56054688 C-52.64267029 230.14338131 -51.90220076 231.68556314 -51.3125 234.4375 C-51.75 237.75 -51.75 237.75 -52.3125 240.4375 C-51.6525 240.4375 -50.9925 240.4375 -50.3125 240.4375 C-50.61285156 241.13875 -50.91320313 241.84 -51.22265625 242.5625 C-52.70003868 246.45982426 -53.52693742 250.43817966 -54.43359375 254.5 C-55.3125 257.4375 -55.3125 257.4375 -56.94140625 259.99609375 C-59.01696554 263.69189021 -58.14854945 266.15780251 -57.15625 270.12109375 C-56.37326804 272.62747112 -56.37326804 272.62747112 -54.3125 275.0625 C-47.59131405 278.14304356 -41.1338386 276.47193432 -34.3125 274.4375 C-32.56346499 274.3359077 -30.81320682 274.25435868 -29.0625 274.1875 C-23.46962817 273.76554122 -19.63533793 271.83120276 -14.87109375 268.97265625 C-12.6736483 267.65418898 -10.52561819 266.59497595 -8.1875 265.5625 C-4.96282672 263.99585711 -2.66304965 262.02323515 -0.0625 259.5625 C4.14865551 255.64126914 8.48032609 253.3743795 13.66796875 250.95703125 C18.34951386 248.60111787 22.49908633 245.56954385 26.6875 242.4375 C27.3475 242.7675 28.0075 243.0975 28.6875 243.4375 C15.14415303 268.95534286 -1.24378507 279.80002312 -27.3125 291.4375 C-28.11510254 291.81293945 -28.91770508 292.18837891 -29.74462891 292.57519531 C-35.13841915 294.38645859 -41.05507139 293.76385932 -46.6875 293.75 C-48.64042969 293.77416992 -48.64042969 293.77416992 -50.6328125 293.79882812 C-62.69459403 293.8049821 -62.69459403 293.8049821 -68.3125 290.4375 C-69.34897024 289.13231525 -70.35672943 287.80288653 -71.3125 286.4375 C-73.35212558 285.7985107 -73.35212558 285.7985107 -75.3125 285.4375 C-75.41046875 284.81101562 -75.5084375 284.18453125 -75.609375 283.5390625 C-75.75890625 282.72179688 -75.9084375 281.90453125 -76.0625 281.0625 C-76.20171875 280.25039062 -76.3409375 279.43828125 -76.484375 278.6015625 C-77.12999261 276.26040908 -77.12999261 276.26040908 -79.390625 275.1484375 C-80.02484375 274.91382813 -80.6590625 274.67921875 -81.3125 274.4375 C-81.02375 273.81875 -80.735 273.2 -80.4375 272.5625 C-78.61496869 267.49991302 -77.82652265 262.21063062 -76.84765625 256.9296875 C-75.63080676 250.83538345 -75.63080676 250.83538345 -73.5625 248.25 C-73.15 247.651875 -72.7375 247.05375 -72.3125 246.4375 C-72.93877128 244.42448517 -73.61085358 242.42549818 -74.3125 240.4375 C-74.00854367 232.53463551 -70.53461361 225.39044171 -66.5625 218.6875 C-64.52555199 215.09437431 -63.35921264 212.6319644 -64.3125 208.4375 C-66.3549351 205.39476583 -66.3549351 205.39476583 -69.3125 203.4375 C-71.81005168 202.96565051 -71.81005168 202.96565051 -74.3125 204.4375 C-76.12730659 206.03381636 -77.77914514 207.725947 -79.4375 209.484375 C-81.25573172 211.37836637 -83.13800165 213.09791271 -85.125 214.8125 C-86.13626953 215.68841797 -86.13626953 215.68841797 -87.16796875 216.58203125 C-87.87566406 217.19433594 -88.58335937 217.80664062 -89.3125 218.4375 C-103.42217135 230.72497993 -116.62504931 243.49021462 -126.2421875 259.6875 C-128.3125 262.4375 -128.3125 262.4375 -131.2734375 263.81640625 C-135.53859843 266.09152423 -136.821878 269.1550897 -138.9375 273.375 C-143.69018817 282.6061828 -143.69018817 282.6061828 -147.3125 285.4375 C-148.3025 285.4375 -149.2925 285.4375 -150.3125 285.4375 C-150.50585938 286.15035156 -150.69921875 286.86320312 -150.8984375 287.59765625 C-152.33662775 292.88763328 -153.79102632 298.17086033 -155.3125 303.4375 C-161.3289718 303.00775201 -167.83550117 301.91449883 -172.3125 297.4375 C-172.515625 295.50390625 -172.515625 295.50390625 -172.5625 293 C-172.58828125 292.19691406 -172.6140625 291.39382813 -172.640625 290.56640625 C-171.58867677 280.53532849 -166.76952172 272.32783345 -161.8125 263.75 C-160.79030077 261.96514999 -159.77112181 260.17867413 -158.7557373 258.38993835 C-157.83708191 256.77399152 -156.91001872 255.16283279 -155.98242188 253.55200195 C-154.20520259 250.23738406 -152.746136 246.91221253 -151.3125 243.4375 C-152.22644531 243.98921875 -153.14039063 244.5409375 -154.08203125 245.109375 C-159.20571266 248.03278911 -164.59683466 250.33490785 -170 252.6875 C-171.09908691 253.16695068 -172.19817383 253.64640137 -173.33056641 254.14038086 C-202.61292078 266.84633954 -202.61292078 266.84633954 -212.0859375 268.078125 C-214.33985413 268.44191505 -216.10168196 269.09013699 -218.1875 270 C-222.77538001 271.90368465 -227.44405239 271.93671947 -232.359375 272.12890625 C-236.76050021 272.58881219 -238.62029463 273.60278176 -241.4375 277 C-242.05625 277.804375 -242.675 278.60875 -243.3125 279.4375 C-246.63077538 281.09663769 -249.73988462 281.06397758 -253.3125 280.4375 C-255.32289366 279.50186224 -257.30112362 278.49531924 -259.25 277.4375 C-264.38869434 274.68950037 -268.50323025 273.14243986 -274.3125 274.4375 C-276.71333438 275.79635116 -276.71333438 275.79635116 -278.3125 277.4375 C-278.9725 277.4375 -279.6325 277.4375 -280.3125 277.4375 C-280.786875 276.798125 -281.26125 276.15875 -281.75 275.5 C-283.2216365 273.15377037 -283.2216365 273.15377037 -286.3125 272.4375 C-289.79690725 272.20376336 -293.28025308 272.05617672 -296.76953125 271.9140625 C-300.56802996 271.40312883 -303.05621424 270.43251455 -306.3125 268.4375 C-307.33554948 266.78488161 -308.33866054 265.11958635 -309.3125 263.4375 C-311.12791477 262.10856744 -311.12791477 262.10856744 -313.3125 262.4375 C-316.72474941 265.20418871 -319.15721729 268.51530144 -321.8125 272 C-325.93404621 277.35623354 -330.48718351 281.9620603 -337.3125 283.4375 C-341.23166714 283.48326522 -345.0707483 283.37453172 -348.984375 283.15234375 C-352.37369933 283.06297299 -352.37369933 283.06297299 -354.078125 285.37890625 C-354.48546875 286.05824219 -354.8928125 286.73757813 -355.3125 287.4375 C-358.35404968 288.45134989 -360.52904917 288.59041233 -363.71484375 288.6484375 C-364.76994141 288.67679688 -365.82503906 288.70515625 -366.91210938 288.734375 C-369.13329633 288.78636299 -371.35467684 288.83066263 -373.57617188 288.8671875 C-375.16075195 288.91359375 -375.16075195 288.91359375 -376.77734375 288.9609375 C-377.742771 288.98075684 -378.70819824 289.00057617 -379.70288086 289.02099609 C-382.70316452 289.49985136 -383.98512612 290.55723099 -386.3125 292.4375 C-393.23929834 292.60572225 -399.30995731 290.66774227 -404.58203125 286.2109375 C-406.95122965 283.78291025 -408.88252346 281.1500478 -410.80859375 278.36328125 C-412.35964223 276.37713346 -413.91656127 275.11388692 -415.9375 273.625 C-421.42245537 269.18364233 -423.04752554 261.99820857 -424.0625 255.25 C-424.18625 253.8578125 -424.18625 253.8578125 -424.3125 252.4375 C-426.52818639 253.28046517 -426.52818639 253.28046517 -427.3125 255.6875 C-430.83565017 260.53183148 -436.6811743 262.36520733 -442.12109375 264.58203125 C-444.72246653 265.71092887 -447.03080405 266.749045 -449.3125 268.4375 C-449.96413063 270.32169965 -449.96413063 270.32169965 -450.0625 272.375 C-450.34375 274.44921875 -450.34375 274.44921875 -451.3125 276.4375 C-455.70008613 279.19234934 -460.43334603 280.79589241 -465.3125 282.4375 C-466.44816406 282.85257813 -467.58382812 283.26765625 -468.75390625 283.6953125 C-480.21318178 287.49294031 -493.422398 288.7397132 -504.75390625 283.82421875 C-516.91252945 277.2344306 -523.48787871 269.68688058 -527.49609375 256.48828125 C-530.94447799 243.60221381 -530.29636523 234.90386988 -525.25 222.5625 C-524.50472873 220.71269849 -523.76364094 218.86120435 -523.02734375 217.0078125 C-522.69855225 216.20102051 -522.36976074 215.39422852 -522.03100586 214.56298828 C-521.15237991 212.33777295 -521.15237991 212.33777295 -521.3125 209.4375 C-522.71715067 208.30692751 -524.12433669 207.17938457 -525.54296875 206.06640625 C-529.13560512 202.75927741 -531.60367218 198.46950787 -534.3125 194.4375 C-535.69576238 192.42878502 -537.0915649 190.42864572 -538.5 188.4375 C-539.44939453 187.07625 -539.44939453 187.07625 -540.41796875 185.6875 C-542.29397223 183.45950411 -543.63004431 182.48431198 -546.3125 181.4375 C-548.01985301 182.47318595 -548.01985301 182.47318595 -549.3125 184.4375 C-549.02375 185.448125 -548.735 186.45875 -548.4375 187.5 C-548.3125 191.4375 -548.3125 191.4375 -549.78125 193.484375 C-551.3239308 195.10530772 -552.87873874 196.714733 -554.44140625 198.31640625 C-564.27002355 208.64180168 -574.49177863 222.80340099 -579.33984375 236.296875 C-579.66082031 237.00328125 -579.98179687 237.7096875 -580.3125 238.4375 C-581.735625 238.6540625 -581.735625 238.6540625 -583.1875 238.875 C-586.58463025 239.12300803 -586.58463025 239.12300803 -588.5 242.3125 C-589.098125 243.34375 -589.69625 244.375 -590.3125 245.4375 C-590.8075 245.911875 -591.3025 246.38625 -591.8125 246.875 C-593.36353852 248.49066512 -594.19499886 249.97117491 -595.25 251.9375 C-596.88977246 254.87542565 -598.240373 256.85488912 -601.3125 258.4375 C-604.0625 258.625 -604.0625 258.625 -606.3125 258.4375 C-606.45945312 258.994375 -606.60640625 259.55125 -606.7578125 260.125 C-608.85614845 267.26416601 -612.02977667 272.79530805 -617.875 277.5 C-620.82961527 278.63639049 -622.35432773 278.50572888 -625.3125 277.4375 C-627.29634711 273.46980578 -626.63880565 268.58220514 -625.3125 264.4375 C-626.01375 265.18 -626.715 265.9225 -627.4375 266.6875 C-630.2932888 269.41912407 -632.93203832 271.39646653 -636.3125 273.4375 C-637.34117187 274.11039063 -637.34117187 274.11039063 -638.390625 274.796875 C-646.55721404 279.61029503 -655.21477198 279.8332715 -664.3671875 277.73828125 C-674.74229244 274.25542024 -688.391411 267.1293487 -693.53515625 257.0390625 C-694.69072649 253.17167667 -695.13354621 249.27158114 -695.65234375 245.27734375 C-696.36261978 242.22189596 -697.11034655 240.65516157 -699.3125 238.4375 C-702.91715748 237.62435089 -702.91715748 237.62435089 -706.3125 237.4375 C-706.6528125 237.98277344 -706.993125 238.52804687 -707.34375 239.08984375 C-715.69568824 252.08421574 -727.15570995 263.71785897 -742.3125 268.4375 C-744.07985698 268.74954077 -745.85096826 269.04096453 -747.625 269.3125 C-751.4897222 269.98047668 -752.03509485 270.09261793 -754.625 273.3125 C-755.181875 274.34375 -755.73875 275.375 -756.3125 276.4375 C-759.84132992 279.67851755 -763.29010393 281.48549019 -767.75 283.1875 C-769.38775391 283.82945312 -769.38775391 283.82945312 -771.05859375 284.484375 C-774.44842164 285.47731378 -776.81066957 285.89528646 -780.3125 285.4375 C-782.83984375 283.79296875 -782.83984375 283.79296875 -785.25 281.625 C-788.17925152 279.01010718 -790.02839955 277.52545092 -793.8203125 276.3515625 C-799.13051583 273.44104837 -800.20469678 269.12775492 -802.25 263.625 C-802.64767578 262.63951172 -803.04535156 261.65402344 -803.45507812 260.63867188 C-806.99811948 251.558485 -806.99811948 251.558485 -806.3125 246.4375 C-805.9825 246.1075 -805.6525 245.7775 -805.3125 245.4375 C-804.94489269 243.10932036 -804.61008419 240.7756615 -804.3125 238.4375 C-805.6325 238.1075 -806.9525 237.7775 -808.3125 237.4375 C-808.168125 236.220625 -808.02375 235.00375 -807.875 233.75 C-807.29321992 228.59592012 -806.93629233 223.43264845 -806.59375 218.2578125 C-806.3125 215.4375 -806.3125 215.4375 -805.3125 212.4375 C-806.36308594 212.57027344 -807.41367187 212.70304688 -808.49609375 212.83984375 C-809.91405823 213.01826312 -811.33202722 213.1966466 -812.75 213.375 C-813.43771484 213.46201172 -814.12542969 213.54902344 -814.83398438 213.63867188 C-816.26420187 213.81828058 -817.69480543 213.99483534 -819.12573242 214.16870117 C-820.5358998 214.34203982 -821.94506244 214.52386517 -823.3527832 214.71606445 C-827.96760277 215.30558982 -832.52356167 215.525098 -837.17578125 215.61328125 C-838.39201172 215.63712891 -839.60824219 215.66097656 -840.86132812 215.68554688 C-843.38979632 215.72884706 -845.91850098 215.75991442 -848.44726562 215.77929688 C-849.65705078 215.80701172 -850.86683594 215.83472656 -852.11328125 215.86328125 C-853.20809814 215.87786377 -854.30291504 215.89244629 -855.4309082 215.9074707 C-859.0021186 216.56434589 -860.11998858 217.58639678 -862.3125 220.4375 C-863.39618674 222.57214609 -863.39618674 222.57214609 -864.09375 224.87890625 C-864.37863281 225.70970703 -864.66351562 226.54050781 -864.95703125 227.39648438 C-865.52850233 229.13568745 -866.09881039 230.87527309 -866.66796875 232.61523438 C-866.95285156 233.44474609 -867.23773437 234.27425781 -867.53125 235.12890625 C-867.77810547 235.88373291 -868.02496094 236.63855957 -868.27929688 237.41625977 C-869.56444518 239.93037669 -870.89665757 241.00543724 -873.3125 242.4375 C-874.3025 242.4375 -875.2925 242.4375 -876.3125 242.4375 C-875.3225 244.9125 -875.3225 244.9125 -874.3125 247.4375 C-875.07304688 247.95054687 -875.83359375 248.46359375 -876.6171875 248.9921875 C-879.75371764 251.8377931 -881.00683823 254.68612593 -882.4375 258.5625 C-884.93240027 265.18410018 -884.93240027 265.18410018 -888.3125 267.4375 C-889.323125 267.64375 -890.33375 267.85 -891.375 268.0625 C-894.89918256 268.99838251 -897.00257812 270.69435185 -899.75 273.0625 C-909.86372866 281.51622456 -924.76980614 289.1194102 -938.0625 289.5625 C-941.93402908 288.22235532 -944.77789191 286.17929448 -948.08984375 283.8046875 C-951.22922437 281.87360979 -953.66801343 281.59258453 -957.3125 281.4375 C-957.48265625 280.65246094 -957.6528125 279.86742187 -957.828125 279.05859375 C-959.34683237 272.07865947 -959.34683237 272.07865947 -962.5 265.75 C-965.13682446 260.93097599 -965.15864795 256.40135351 -963.64916992 251.11401367 C-962.776581 248.82760978 -961.82408274 246.60321604 -960.8125 244.375 C-960.47863281 243.60478516 -960.14476562 242.83457031 -959.80078125 242.04101562 C-958.9858988 240.166786 -958.15125732 238.30116742 -957.3125 236.4375 C-957.6748877 236.95884521 -958.03727539 237.48019043 -958.41064453 238.01733398 C-962.73850409 244.0200105 -968.17540459 246.72024156 -974.61889648 249.93041992 C-979.67831031 252.48226211 -984.25991165 255.31700264 -988.8125 258.6875 C-999.23162882 266.32539829 -1008.90098938 270.16314143 -1021.3125 273.4375 C-1022.26318359 273.69740723 -1023.21386719 273.95731445 -1024.19335938 274.22509766 C-1038.01331353 277.97743267 -1051.02533807 280.27168977 -1065.35839844 280.34326172 C-1067.46263759 280.3726707 -1067.46263759 280.3726707 -1070 281.18359375 C-1075.15595585 281.74970377 -1079.83635862 276.88353655 -1083.71289062 273.78320312 C-1096.31186286 263.18406775 -1099.40137311 248.6772089 -1100.83520508 232.94335938 C-1100.95108772 231.45724065 -1101.06011794 229.97056849 -1101.16162109 228.48339844 C-1101.29499895 226.67481198 -1101.49598857 224.87148867 -1101.70703125 223.0703125 C-1102.53119569 211.64376138 -1098.11187516 201.15136269 -1094.38964844 190.52490234 C-1093.41075342 187.71912119 -1092.46741808 184.90484899 -1091.5390625 182.08203125 C-1088.65957096 173.4309457 -1085.40164815 165.01598548 -1081.6875 156.6875 C-1081.3272876 155.87756592 -1080.9670752 155.06763184 -1080.59594727 154.2331543 C-1078.83899037 150.39568527 -1076.96944424 146.80896713 -1074.66015625 143.2734375 C-1072.47378319 139.88136869 -1071.3744119 136.7456694 -1070.375 132.8125 C-1066.34105929 119.05407289 -1056.77219401 106.5038028 -1047.84350586 95.484375 C-1043.88607486 90.19349612 -1041.53506695 84.07525304 -1039.18652344 77.94677734 C-1034.97720078 67.00638006 -1029.20864813 58.34887254 -1021.625 49.39453125 C-1019.52982081 46.71539164 -1017.78048619 44.03910564 -1016.03344727 41.13427734 C-1011.6620863 33.86782702 -1006.91159672 27.66187975 -999.3125 23.4375 C-997.17578125 23.52734375 -997.17578125 23.52734375 -995.3125 24.4375 C-994.87292969 24.97375 -994.43335938 25.51 -993.98046875 26.0625 C-993.43003906 26.51625 -992.87960937 26.97 -992.3125 27.4375 C-989.13434006 27.15926922 -989.13434006 27.15926922 -985.625 26.4375 C-979.17862663 25.84234727 -979.17862663 25.84234727 -975.578125 28.31640625 C-971.20215577 33.64670919 -969.82542998 37.86903754 -970.25 44.75 C-970.67907895 47.91220371 -971.22455871 51.01255291 -971.87109375 54.13671875 C-972.26526626 57.08429198 -972.37137518 59.813901 -972.3828125 62.78125 C-972.45693324 75.64902806 -972.63059421 87.75559421 -982.3125 97.4375 C-982.4111464 99.81081625 -982.44222239 102.18713923 -982.4375 104.5625 C-982.59146345 109.90350479 -983.26876983 113.38132661 -987.1875 117.25 C-989.48061268 119.16656835 -991.82232921 120.77738614 -994.3125 122.4375 C-994.82099927 125.71177442 -994.82099927 125.71177442 -995 129.5 C-995.61970076 136.2474102 -997.5065898 139.43523032 -1002.3515625 144.0703125 C-1005.52568419 147.90202116 -1006.28458411 152.25125316 -1007.4609375 157.0078125 C-1010.49042724 169.20915193 -1016.15261705 177.82041386 -1025.59375 185.99609375 C-1032.15528975 191.88828102 -1038.20771168 198.32490554 -1042.8125 205.875 C-1052.04845904 221.01767704 -1065.74270142 233.09525661 -1078.3125 245.4375 C-1078.00634766 246.19780518 -1077.70019531 246.95811035 -1077.38476562 247.74145508 C-1076.61558513 249.67543963 -1075.87611505 251.62134159 -1075.15625 253.57421875 C-1072.71513273 257.36519112 -1069.97828341 258.14942223 -1065.8125 259.25 C-1065.09271973 259.45302734 -1064.37293945 259.65605469 -1063.63134766 259.86523438 C-1052.36848353 262.91428314 -1043.62820866 262.48993157 -1032.3125 259.4375 C-1030.84683594 259.05271484 -1030.84683594 259.05271484 -1029.3515625 258.66015625 C-1014.40423462 254.21690947 -1001.16568864 245.3056421 -988.29980469 236.74560547 C-986.44606369 235.52541576 -984.57749035 234.33586856 -982.6953125 233.16015625 C-961.3209449 221.10197846 -961.3209449 221.10197846 -947.3125 202.875 C-945.65064526 197.16237432 -940.94816317 194.18368537 -936.11328125 190.98046875 C-932.12829826 188.30662619 -930.13438467 186.87102735 -929.1875 182.0625 C-928.31927848 178.48639876 -927.03202187 177.03120945 -924.02734375 175.08203125 C-920.53803543 173.03185137 -916.95316756 171.20252641 -913.3125 169.4375 C-913.49683594 168.52742187 -913.68117188 167.61734375 -913.87109375 166.6796875 C-914.40191 162.78077171 -913.56745032 160.12853035 -912.3125 156.4375 C-911.60867188 156.3859375 -910.90484375 156.334375 -910.1796875 156.28125 C-901.9983482 155.34135723 -896.42369806 152.64381145 -889.5390625 148.41015625 C-880.70521666 143.0093183 -880.70521666 143.0093183 -875.8125 143.0625 C-875.1009375 143.05476562 -874.389375 143.04703125 -873.65625 143.0390625 C-870.21549584 143.62399071 -868.20632522 144.41411297 -865.3125 146.4375 C-863.49425611 149.44206581 -862.46893958 152.59214772 -861.4375 155.9375 C-860.98491821 157.36280029 -860.98491821 157.36280029 -860.52319336 158.81689453 C-857.10808636 170.82531886 -857.66781808 183.07944342 -858.3125 195.4375 C-857.69761719 195.64246094 -857.08273437 195.84742188 -856.44921875 196.05859375 C-851.38085938 197.74804688 -851.38085938 197.74804688 -846.3125 199.4375 C-839.84539507 199.83877779 -834.43372524 199.61393564 -828.3125 197.4375 C-826.83275674 197.44298053 -825.35288236 197.48810995 -823.875 197.5625 C-820.43692165 197.66650909 -818.48519856 197.25861501 -815.5625 195.4375 C-812.32622953 193.44594894 -810.99593397 192.72127673 -807.3125 193.4375 C-805.5 194.9375 -805.5 194.9375 -804.3125 196.4375 C-800.85112987 195.49402603 -799.55465904 194.8118942 -797.57421875 191.75 C-797.05472656 190.656875 -796.53523438 189.56375 -796 188.4375 C-791.99813802 180.58135013 -787.44086362 173.70220784 -780.375 168.3125 C-778.3410999 166.70366217 -777.4429425 165.98048014 -776.83203125 163.4375 C-776.78433594 162.73625 -776.73664063 162.035 -776.6875 161.3125 C-776.3125 157.4375 -776.3125 157.4375 -774.25 154.9375 C-770.42087995 152.98220466 -767.52499447 152.63916435 -763.3125 153.4375 C-760.3125 154.8125 -760.3125 154.8125 -758.3125 157.4375 C-754.47756161 177.31280571 -771.02577917 201.05387644 -779.88671875 217.91015625 C-780.48137939 219.04364502 -781.07604004 220.17713379 -781.6887207 221.3449707 C-782.67503489 223.22343136 -783.664812 225.1000864 -784.66088867 226.97338867 C-786.80525565 231.07042128 -786.80525565 231.07042128 -787.25 235.625 C-786.40986138 238.50551959 -786.40986138 238.50551959 -784.6875 241.0625 C-783.3125 243.4375 -783.3125 243.4375 -783.3125 245.625 C-784.74932149 248.22923895 -786.54987675 248.58746208 -789.3125 249.4375 C-788.16105419 254.33114471 -787.08776061 257.87796857 -783.3125 261.4375 C-779.54942901 262.07997553 -778.55403166 261.5985211 -775.3125 259.4375 C-774.466875 259.52 -773.62125 259.6025 -772.75 259.6875 C-768.91069608 259.4082779 -767.59871587 258.51584161 -764.4375 256.4375 C-759.67163043 253.37784054 -756.90684547 252.73820682 -751.3125 253.4375 C-750.6525 253.7675 -749.9925 254.0975 -749.3125 254.4375 C-748.9721875 253.4475 -748.9721875 253.4475 -748.625 252.4375 C-746.55481985 247.70565967 -743.97983454 243.10483454 -740.3125 239.4375 C-737.1875 239.3125 -737.1875 239.3125 -734.3125 239.4375 C-734.126875 238.756875 -733.94125 238.07625 -733.75 237.375 C-729.34119108 228.36569482 -719.53069934 223.35605966 -711.40625 218.13085938 C-702.78470416 212.44040226 -696.98422013 207.04313545 -693.453125 197.2578125 C-691.0570752 191.33333321 -687.61562662 185.89338899 -684.3125 180.4375 C-683.94431152 179.8276123 -683.57612305 179.21772461 -683.19677734 178.58935547 C-671.6297848 159.5961424 -671.6297848 159.5961424 -665.3125 156.4375 C-661.35687178 156.17952425 -658.71590307 156.34309811 -655.3125 158.4375 C-654.92723674 164.74881261 -655.90060567 168.55563437 -658.75 174.125 C-661.31830551 179.44564265 -662.72588352 183.67539467 -662.875 189.6875 C-663.05050934 195.16879163 -663.05050934 195.16879163 -665.75 197.9375 C-666.925625 198.4325 -668.10125 198.9275 -669.3125 199.4375 C-677.51354761 202.95906514 -677.51354761 202.95906514 -683.3125 209.4375 C-684.14839276 211.76536414 -684.74398093 214.02129397 -685.3125 216.4375 C-684.19875 216.7778125 -684.19875 216.7778125 -683.0625 217.125 C-679.75484191 218.703655 -678.36391591 220.43364099 -676.3125 223.4375 C-675.28281169 226.52656494 -675.19477115 229.16105972 -675.1237793 232.39208984 C-674.89771626 242.41061719 -674.89771626 242.41061719 -669.3125 250.4375 C-668.714375 251.0975 -668.11625 251.7575 -667.5 252.4375 C-663.94218236 254.06393092 -661.11437573 253.17334692 -657.3125 252.4375 C-656.6525 252.1075 -655.9925 251.7775 -655.3125 251.4375 C-652.05291633 251.22019442 -649.78709368 251.24071726 -646.75 252.5 C-643.81607538 253.62843255 -642.30915399 253.16641584 -639.3125 252.4375 C-638.6525 252.7675 -637.9925 253.0975 -637.3125 253.4375 C-636.735 252.468125 -636.1575 251.49875 -635.5625 250.5 C-633.57817996 248.04240823 -632.66332332 247.48837907 -629.484375 247.02734375 C-627.36979167 246.96744792 -625.25520833 246.90755208 -623.140625 246.84765625 C-619.96167668 246.38662093 -619.04682004 245.83259177 -617.0625 243.375 C-616.485 242.405625 -615.9075 241.43625 -615.3125 240.4375 C-613.9925 240.7675 -612.6725 241.0975 -611.3125 241.4375 C-610.9825 240.4475 -610.6525 239.4575 -610.3125 238.4375 C-608.86324853 237.22566152 -607.41082171 236.01717666 -605.93457031 234.83837891 C-603.30186001 232.56467455 -601.26844426 229.89850342 -599.1875 227.125 C-598.75373047 226.54814453 -598.31996094 225.97128906 -597.87304688 225.37695312 C-591.51924171 216.7863 -589.54733102 210.09604146 -588.3125 199.4375 C-587.58804688 199.26734375 -586.86359375 199.0971875 -586.1171875 198.921875 C-579.04537308 197.14920685 -573.51970723 195.74831085 -569.3125 189.4375 C-568.99995622 186.71466095 -569.17916572 184.19307514 -569.3125 181.4375 C-569.6425 181.1075 -569.9725 180.7775 -570.3125 180.4375 C-570.875 177.6875 -570.875 177.6875 -570.3125 174.4375 C-568.7734375 173.28125 -568.7734375 173.28125 -566.75 172.1875 C-557.75688554 167.13182619 -553.5348672 156.49609961 -548.86376953 147.68286133 C-544.57777533 139.70734188 -544.57777533 139.70734188 -541.3125 137.4375 C-537.36559961 137.58607399 -534.03953927 139.33684299 -530.5 141 C-529.52417969 141.45503906 -528.54835938 141.91007813 -527.54296875 142.37890625 C-526.43888672 142.90291016 -526.43888672 142.90291016 -525.3125 143.4375 C-525.63089844 144.26121094 -525.94929688 145.08492187 -526.27734375 145.93359375 C-527.4240657 149.81513938 -527.72135528 153.48650021 -527.875 157.5 C-528.20306647 165.01760831 -528.20306647 165.01760831 -529.03125 168.1953125 C-529.55992094 170.49968961 -529.55992094 170.49968961 -528.08984375 172.39453125 C-527.17912109 173.31298828 -527.17912109 173.31298828 -526.25 174.25 C-522.59716744 178.1008777 -519.42840141 182.14600209 -516.3125 186.4375 C-515.46341064 186.19652588 -515.46341064 186.19652588 -514.59716797 185.95068359 C-512.25738234 185.42511944 -510.15268676 185.28057477 -507.7578125 185.2265625 C-506.89542969 185.19820312 -506.03304687 185.16984375 -505.14453125 185.140625 C-503.34785904 185.08877299 -501.55095343 185.04443355 -499.75390625 185.0078125 C-494.50391979 184.82003355 -490.92563237 184.1884505 -486.3125 181.4375 C-483.03294768 180.34431589 -481.09780914 180.47956745 -477.6875 180.8125 C-476.21410156 180.94785156 -476.21410156 180.94785156 -474.7109375 181.0859375 C-472.3125 181.4375 -472.3125 181.4375 -471.3125 182.4375 C-471.00068654 188.52760659 -471.25146632 193.97452522 -475.3125 198.75 C-478.69461968 202.11115613 -482.43127301 205.01256028 -486.296875 207.796875 C-488.40534747 209.51307353 -489.84912522 211.15097691 -491.3125 213.4375 C-491.43625 214.675 -491.43625 214.675 -491.5625 215.9375 C-492.3125 218.4375 -492.3125 218.4375 -495.625 220.25 C-496.25277344 220.56710937 -496.88054688 220.88421875 -497.52734375 221.2109375 C-501.35087841 223.83804884 -502.81346496 228.4037613 -503.8828125 232.76171875 C-504.39407106 235.94546521 -504.6153125 239.09411835 -504.8125 242.3125 C-505.12739216 247.07087048 -505.52874558 251.7349735 -506.3125 256.4375 C-505.3225 256.7675 -504.3325 257.0975 -503.3125 257.4375 C-502.9825 256.7775 -502.6525 256.1175 -502.3125 255.4375 C-501.84199219 255.85902344 -501.37148437 256.28054688 -500.88671875 256.71484375 C-500.26410156 257.26269531 -499.64148437 257.81054688 -499 258.375 C-498.38511719 258.92027344 -497.77023437 259.46554687 -497.13671875 260.02734375 C-493.49289942 262.84408632 -489.42612081 263.01250806 -484.97265625 262.98046875 C-480.82247475 262.13336856 -478.83368869 259.52244079 -475.9140625 256.59765625 C-472.85094706 254.05425859 -469.68298194 252.63932472 -466 251.25 C-465.35434082 251.00596436 -464.70868164 250.76192871 -464.04345703 250.51049805 C-461.04948719 249.40266173 -458.03987735 248.34078387 -455.03125 247.2734375 C-447.25383089 244.32683799 -442.20418831 240.23385355 -436.3125 234.4375 C-434.73617123 233.01304344 -433.15272367 231.59642781 -431.5625 230.1875 C-430.75167969 229.44886719 -429.94085937 228.71023438 -429.10546875 227.94921875 C-426.98535328 226.04259743 -424.84483138 224.18132523 -422.67578125 222.33203125 C-413.97884272 215.01951014 -413.97884272 215.01951014 -409.86328125 204.71875 C-408.85192929 200.529888 -406.14316943 197.58191358 -403.3125 194.4375 C-402.87164063 193.90769531 -402.43078125 193.37789062 -401.9765625 192.83203125 C-398.84710788 189.6030853 -395.98673563 189.0294601 -391.6875 188.8125 C-388.11189475 189.01195553 -386.6363884 189.21906364 -383.625 191.25 C-381.62435559 196.10870785 -381.27689052 200.2733534 -382.3125 205.4375 C-384.22894515 209.12212663 -386.69027539 212.22906949 -389.3125 215.4375 C-394.23312521 221.55359164 -395.74052337 225.16907321 -395.26953125 233.06640625 C-395.3125 235.4375 -395.3125 235.4375 -397.125 237.6875 C-397.846875 238.265 -398.56875 238.8425 -399.3125 239.4375 C-402.32536312 245.79798881 -403.46791162 250.02384559 -402.5 256.9375 C-402.41685547 257.61425781 -402.33371094 258.29101562 -402.24804688 258.98828125 C-401.77663628 262.47740783 -401.29868865 264.45821703 -399.3125 267.4375 C-391.92079605 269.9972197 -379.34033078 271.7531855 -372.1328125 268.43359375 C-371.53210937 268.10488281 -370.93140625 267.77617188 -370.3125 267.4375 C-365.21707246 267.17841046 -360.34760495 267.57461937 -355.29296875 268.21875 C-353.14760787 268.49239299 -353.14760787 268.49239299 -350.3125 268.4375 C-350.126875 267.509375 -350.126875 267.509375 -349.9375 266.5625 C-349.3125 264.4375 -349.3125 264.4375 -347.3125 262.4375 C-345.56889584 262.18108762 -343.81685382 261.98026608 -342.0625 261.8125 C-338.64620228 261.27520547 -336.84167439 260.94484205 -334.32421875 258.53125 C-332.73630899 256.35341612 -332.73630899 256.35341612 -331.43359375 254.1171875 C-331.06363281 253.56289063 -330.69367187 253.00859375 -330.3125 252.4375 C-329.6525 252.4375 -328.9925 252.4375 -328.3125 252.4375 C-327.93820386 246.37523932 -328.74172009 242.43331483 -331.8125 237.125 C-332.16836182 236.48054932 -332.52422363 235.83609863 -332.89086914 235.17211914 C-335.76184168 230.09328747 -339.07994636 225.44377486 -342.74609375 220.90234375 C-344.59712365 217.98962587 -345.12751819 215.87353718 -345.3125 212.4375 C-343.375 209.0625 -343.375 209.0625 -341.3125 206.4375 C-341.9725 206.4375 -342.6325 206.4375 -343.3125 206.4375 C-343.1875 203.625 -343.1875 203.625 -342.3125 200.4375 C-339.39558708 198.44869574 -337.09838568 197.56543488 -333.625 197 C-331.3125 197.4375 -331.3125 197.4375 -329.80078125 199.08984375 C-328.08551049 201.79555957 -327.19354182 204.39701805 -326.1875 207.4375 C-323.44120742 214.89896569 -319.33970604 220.35885217 -314.3125 226.4375 C-304.64573693 222.03732722 -294.13491615 211.46667873 -289.94140625 201.78125 C-289.1859635 199.27866429 -289.1859635 199.27866429 -289.1015625 195.94921875 C-288.23077613 192.07378833 -287.22130701 191.02781572 -283.95922852 188.87719727 C-283.0512854 188.31923462 -283.0512854 188.31923462 -282.125 187.75 C-280.83451349 186.89668587 -279.54816381 186.03708864 -278.265625 185.171875 C-277.60626953 184.72779297 -276.94691406 184.28371094 -276.26757812 183.82617188 C-273.12076644 181.59102391 -270.26083214 179.05781238 -267.375 176.5 C-236.54441647 149.53027292 -236.54441647 149.53027292 -218.64453125 148.24609375 C-216.3125 148.4375 -216.3125 148.4375 -214.5625 150.5 C-213.82 151.469375 -213.0775 152.43875 -212.3125 153.4375 C-210.87883387 154.59377096 -209.417477 155.71612908 -207.9375 156.8125 C-201.12591418 161.99961223 -196.54995185 166.95859183 -194.3125 175.4375 C-193.90734431 178.80375509 -193.88331272 182.11267193 -193.9375 185.5 C-193.95272705 186.88699097 -193.95272705 186.88699097 -193.96826172 188.30200195 C-194.26003062 201.34226229 -197.62537832 213.10568196 -201.91015625 225.34375 C-203.93085014 231.17942148 -205.52007597 236.68321029 -205.9375 242.875 C-206.01226563 243.92558594 -206.08703125 244.97617187 -206.1640625 246.05859375 C-206.21304688 246.84363281 -206.26203125 247.62867188 -206.3125 248.4375 C-205.44625 247.65375 -204.58 246.87 -203.6875 246.0625 C-199.05594942 242.67680799 -194.10387454 242.48830467 -188.51953125 241.9921875 C-185.1304131 241.40600628 -183.9266454 240.53322838 -181.3125 238.4375 C-179.19140625 238.0234375 -179.19140625 238.0234375 -176.875 237.8125 C-168.3063979 236.31679727 -160.94939438 229.95384878 -154.6875 224.1875 C-150.58427972 220.48736685 -143.95092859 216.4375 -138.3125 216.4375 C-138.2815625 214.6121875 -138.2815625 214.6121875 -138.25 212.75 C-137.42099242 204.84930657 -132.63656223 197.92359334 -128.3125 191.4375 C-128.0414278 189.42389089 -128.0414278 189.42389089 -128 187.25 C-127.47604831 181.89023184 -125.3605496 178.76931637 -122.3125 174.4375 C-116.05309192 165.0204939 -110.40813193 156.38389484 -107.8125 145.25 C-106.67279424 140.4399515 -105.62118347 137.13544035 -102.3125 133.4375 C-99.5625 132.0625 -99.5625 132.0625 -97.3125 131.4375 C-97.23 130.138125 -97.1475 128.83875 -97.0625 127.5 C-96.57905609 123.03690191 -95.24022162 119.58311424 -93.28125 115.57421875 C-92.13567345 113.22124496 -92.13567345 113.22124496 -91.375 109.625 C-90.10580215 105.81740645 -88.55567546 104.68277532 -85.3125 102.4375 C-84.07329829 99.95909657 -84.12857346 97.76028786 -84.0234375 95.02905273 C-83.35716874 78.32879924 -83.35716874 78.32879924 -78.21875 73.44921875 C-76.67044055 72.23520339 -75.08816833 71.06271114 -73.46875 69.9453125 C-70.62111509 67.97040402 -70.62111509 67.97040402 -68.3125 65.4375 C-68.33699219 64.67695312 -68.36148437 63.91640625 -68.38671875 63.1328125 C-68.2793666 59.23423438 -66.44672574 57.39550938 -64.125 54.3125 C-60.49638705 49.35370256 -57.7718768 44.486523 -55.35546875 38.8125 C-53.01689794 33.48721517 -50.11251506 29.72172083 -45.3125 26.4375 C-44.6525 26.4375 -43.9925 26.4375 -43.3125 26.4375 C-43.37050781 25.84582031 -43.42851563 25.25414062 -43.48828125 24.64453125 C-43.85591037 18.20576983 -43.85591037 18.20576983 -41.5 14.875 C-40.47051075 14.0210595 -39.39950784 13.21690775 -38.3125 12.4375 C-37.41789062 11.78652344 -36.52328125 11.13554688 -35.6015625 10.46484375 C-33.65965056 9.06065283 -31.70561404 7.67303534 -29.73828125 6.3046875 C-27.11931221 4.49547007 -27.11931221 4.49547007 -25.3125 1.4375 C-17.7705085 -2.21330465 -7.6796909 -3.62249571 0 0 Z " fill="#AF6C70" transform="translate(1733.3125,763.5625)"/>
<path d="M0 0 C0.86625 0.61875 1.7325 1.2375 2.625 1.875 C7.3402776 4.62879942 12.34385117 4.88906209 17.6953125 5.41015625 C21.16754522 6.02990464 23.1830983 6.90987899 26 9 C28.18381989 12.27572983 28.80516472 14.09590719 29 18 C27.57836914 20.30761719 27.57836914 20.30761719 25.47265625 22.546875 C20.54159002 28.28102204 17.56829945 34.40755668 14.4375 41.25 C13.30895342 43.64860676 12.18005092 46.04704609 11.05078125 48.4453125 C10.03342552 50.63000878 9.01645284 52.8148835 8 55 C4.05866954 63.40928267 0.04565183 70.90885951 -6 78 C-6.70125 78.928125 -7.4025 79.85625 -8.125 80.8125 C-11.45472056 84.69717398 -15.45304656 87.66822901 -20 90 C-21.32 90 -22.64 90 -24 90 C-23.91298828 91.01320313 -23.91298828 91.01320313 -23.82421875 92.046875 C-23.45272119 99.39191244 -23.45272119 99.39191244 -26.25 102.5 C-30.02341478 104.55822625 -33.26658106 106.1998684 -37.5 107.0625 C-40.3510435 107.65321278 -43.1795996 108.2756699 -46 109 C-46.33 110.32 -46.66 111.64 -47 113 C-47.7734375 113.00257812 -48.546875 113.00515625 -49.34375 113.0078125 C-58.48554099 113.34723543 -62.81196557 115.68671595 -69.08984375 122.15234375 C-77.72775476 130.34225937 -88.01412696 132.36943173 -99.28857422 135.28173828 C-105.85148905 137.02026659 -112.23307197 139.30428184 -118.5625 141.75 C-122 143 -122 143 -125 143 C-125 143.66 -125 144.32 -125 145 C-127.31 145.33 -129.62 145.66 -132 146 C-132.33 145.34 -132.66 144.68 -133 144 C-135.61475003 143.60515661 -135.61475003 143.60515661 -138.6875 143.5 C-143.1425175 143.21394656 -146.79321597 142.5498678 -151 141 C-151.66 141.33 -152.32 141.66 -153 142 C-163.39824254 142.56916696 -173.0154897 142.28901516 -183 139 C-183 138.34 -183 137.68 -183 137 C-184.0725 136.896875 -185.145 136.79375 -186.25 136.6875 C-191.00062629 136.10527404 -195.53830775 134.90171019 -200.16015625 133.68359375 C-202.48184175 133.1247286 -204.6311385 132.77136736 -207 132.5625 C-210 132 -210 132 -211.56640625 130.1796875 C-215.78075705 126.40503622 -221.31219844 125.36693631 -226.64648438 123.73242188 C-233.27455637 121.58211195 -237.14046408 119.18777586 -240.75 113 C-241.87813214 110.29248287 -242.57465675 107.8923341 -243 105 C-244.32 104.67 -245.64 104.34 -247 104 C-247.10883596 101.62374823 -247.18766696 99.25256024 -247.25 96.875 C-247.28351563 96.20984375 -247.31703125 95.5446875 -247.3515625 94.859375 C-247.45159077 89.75793315 -246.32992731 86.84498801 -243 83 C-242.01 83 -241.02 83 -240 83 C-239.979375 81.865625 -239.95875 80.73125 -239.9375 79.5625 C-238.81960669 70.86437127 -230.81941528 64.6128957 -224.8203125 58.84765625 C-222.93177292 57.12116834 -222.93177292 57.12116834 -222 55 C-221.28585938 55.1546875 -220.57171875 55.309375 -219.8359375 55.46875 C-215.15277287 56.34603704 -210.72239614 56.84181844 -206 56 C-203.94308093 54.48504923 -202.49454319 52.80617622 -200.828125 50.875 C-194.38294468 44.26455864 -184.24972451 42.96854671 -175.54980469 41.34301758 C-174.36692871 41.12101685 -174.36692871 41.12101685 -173.16015625 40.89453125 C-172.45511963 40.76925049 -171.75008301 40.64396973 -171.02368164 40.51489258 C-168.94464659 40.06713763 -168.94464659 40.06713763 -166.99560547 38.96337891 C-164.79554014 37.90129696 -163.33751542 37.73462584 -160.91015625 37.69140625 C-159.74238647 37.65648071 -159.74238647 37.65648071 -158.55102539 37.62084961 C-157.31920532 37.59196655 -157.31920532 37.59196655 -156.0625 37.5625 C-148.91518975 37.30658084 -142.48236187 36.50562403 -135.56640625 34.62109375 C-133 34 -133 34 -129 34 C-129 33.34 -129 32.68 -129 32 C-127.81921875 32.03480469 -126.6384375 32.06960938 -125.421875 32.10546875 C-123.86459758 32.13361232 -122.30730475 32.16091187 -120.75 32.1875 C-119.97269531 32.21263672 -119.19539063 32.23777344 -118.39453125 32.26367188 C-113.91880898 32.4587402 -113.91880898 32.4587402 -110.07421875 30.5234375 C-106.54515042 27.93146641 -102.32506528 28.50175978 -98.0625 28.4375 C-90.20844584 28.57573592 -90.20844584 28.57573592 -83 26 C-82.57203125 25.14148437 -82.1440625 24.28296875 -81.703125 23.3984375 C-81.14109375 22.60695313 -80.5790625 21.81546875 -80 21 C-77.10812321 20.63386109 -74.63515221 20.54836406 -71.75 20.625 C-58.58973292 20.47792219 -46.73406186 16.04498987 -34.42578125 11.75390625 C-29.42506627 10.07392749 -24.67526362 8.90865876 -19.43359375 8.3046875 C-17.93904663 8.13114746 -17.93904663 8.13114746 -16.41430664 7.95410156 C-14.42021103 7.73817732 -12.42298905 7.54908482 -10.42358398 7.38964844 C-7.81396359 7.11874564 -5.48575867 6.84245378 -3 6 C-0.74212139 3.08787817 -0.74212139 3.08787817 0 0 Z " fill="#A98B66" transform="translate(460,1014)"/>
<path d="M0 0 C4.93125144 1.03092365 12.6150934 2.8416559 16.2421875 6.46875 C17.9746875 6.5925 17.9746875 6.5925 19.7421875 6.71875 C24.02643386 7.21832643 26.94122581 8.74165094 30.609375 10.93359375 C33.83541459 12.81465244 37.15111821 14.4922528 40.4921875 16.15625 C41.65234375 16.73761719 42.8125 17.31898438 44.0078125 17.91796875 C46.72455772 19.22056277 49.44743972 20.35181793 52.2421875 21.46875 C55.71268787 23.58122849 58.94485316 25.93599919 62.1171875 28.46875 C63.01050781 29.1803125 63.01050781 29.1803125 63.921875 29.90625 C65.2421875 31.46875 65.2421875 31.46875 65.2421875 35.46875 C66.1290625 35.530625 67.0159375 35.5925 67.9296875 35.65625 C72.02925219 36.6618036 73.297008 38.5235705 76.2421875 41.46875 C77.36882812 41.70851563 78.49546875 41.94828125 79.65625 42.1953125 C83.60159479 43.59638265 84.56120523 44.75265662 86.34570312 48.47460938 C86.62091797 49.11205078 86.89613281 49.74949219 87.1796875 50.40625 C87.48197266 51.03982422 87.78425781 51.67339844 88.09570312 52.32617188 C89.43022641 55.2040214 90.2421875 57.2653009 90.2421875 60.46875 C90.9021875 60.46875 91.5621875 60.46875 92.2421875 60.46875 C92.59410156 61.14679687 92.94601562 61.82484375 93.30859375 62.5234375 C96.46339061 68.47060025 99.87309719 74.0213296 103.82421875 79.47265625 C106.96453887 83.89332728 106.82715901 88.73787108 107.22851562 93.99609375 C107.7349831 99.13248076 108.87894102 102.36571363 112.2421875 106.46875 C113.2321875 107.12875 114.2221875 107.78875 115.2421875 108.46875 C115.796875 110.38671875 115.796875 110.38671875 116.1171875 112.65625 C116.76961582 116.1714888 117.62227656 118.31283504 119.8671875 121.09375 C121.99679746 123.80301711 122.2534205 124.55299751 122.7421875 128.21875 C122.2421875 131.46875 122.2421875 131.46875 120.6796875 132.96875 C120.2053125 133.46375 119.7309375 133.95875 119.2421875 134.46875 C119.40469643 138.53147321 120.40071947 142.04513757 121.7421875 145.84375 C123.09312865 149.6867185 123.71599581 153.27485678 124.03125 157.328125 C124.2050978 159.50453032 124.2050978 159.50453032 124.73046875 161.74609375 C125.38753782 165.24210246 125.5977846 168.73676588 125.8046875 172.28125 C125.84787109 172.97412109 125.89105469 173.66699219 125.93554688 174.38085938 C126.04080203 176.07663686 126.14191613 177.77267052 126.2421875 179.46875 C125.2521875 179.79875 124.2621875 180.12875 123.2421875 180.46875 C123.19964394 182.46829746 123.20137967 184.46916636 123.2421875 186.46875 C123.5721875 186.79875 123.9021875 187.12875 124.2421875 187.46875 C125.03224432 203.79659091 125.03224432 203.79659091 120.57421875 209.6640625 C119.21988594 211.00005811 117.82777309 212.29873152 116.40234375 213.55859375 C114.22503124 215.48392073 112.37647467 217.50888405 110.4921875 219.71875 C108.17240567 222.41543002 105.81089194 225.00279373 103.2421875 227.46875 C102.71109375 226.99824219 102.18 226.52773438 101.6328125 226.04296875 C100.92640625 225.42035156 100.22 224.79773438 99.4921875 224.15625 C98.79609375 223.54136719 98.1 222.92648437 97.3828125 222.29296875 C95.39104244 220.59560266 93.35319835 219.01397191 91.2421875 217.46875 C91.7371875 219.94375 91.7371875 219.94375 92.2421875 222.46875 C89.62559447 224.9806793 88.37777814 225.45923487 84.6796875 225.71875 C81.2421875 225.46875 81.2421875 225.46875 78.2421875 224.46875 C77.2521875 224.79875 76.2621875 225.12875 75.2421875 225.46875 C75.2421875 224.14875 75.2421875 222.82875 75.2421875 221.46875 C74.6234375 221.79875 74.0046875 222.12875 73.3671875 222.46875 C68.93976874 223.885524 64.84903813 224.06269107 60.2421875 223.46875 C55.55387131 220.9683147 52.24335003 216.3720724 50.2421875 211.46875 C50.84525731 206.34265665 53.49897705 203.83763941 57.2421875 200.46875 C57.9021875 199.80875 58.5621875 199.14875 59.2421875 198.46875 C62.07176579 198.83151645 64.53303041 199.56569764 67.2421875 200.46875 C69.63709736 200.53845052 72.03386441 200.55323003 74.4296875 200.53125 C76.33814453 200.51771484 76.33814453 200.51771484 78.28515625 200.50390625 C79.26097656 200.49230469 80.23679687 200.48070312 81.2421875 200.46875 C81.46754368 198.37154141 81.46754368 198.37154141 79.8515625 196.953125 C79.23796875 196.38078125 78.624375 195.8084375 77.9921875 195.21875 C72.4937224 189.84149355 69.17131081 183.6141341 65.609375 176.859375 C64.33271853 174.38409575 64.33271853 174.38409575 62.2421875 172.46875 C61.34660295 170.95994672 60.47477408 169.43697018 59.6171875 167.90625 C56.10656646 161.9691703 51.86525868 155.83963693 46.015625 152.01171875 C44.2421875 150.46875 44.2421875 150.46875 43.9140625 148.234375 C43.93984375 147.40421875 43.965625 146.5740625 43.9921875 145.71875 C43.80805073 142.47983151 43.62375793 140.93579926 41.55078125 138.3984375 C39.50522307 136.65801784 37.41800366 135.04229346 35.2421875 133.46875 C32.41254205 131.01142632 31.39382413 129.94261448 30.2421875 126.34375 C29.9121875 125.395 29.5821875 124.44625 29.2421875 123.46875 C28.65050781 123.19289063 28.05882812 122.91703125 27.44921875 122.6328125 C24.36527146 121.00623499 22.96910376 118.77973937 20.9296875 115.96875 C20.33994141 115.16679199 20.33994141 115.16679199 19.73828125 114.34863281 C17.31275268 111.03124998 15.01994628 107.6380429 12.7421875 104.21875 C10.33595095 100.70755168 7.81475466 98.07731365 4.5546875 95.34375 C0.99919541 92.34492587 -0.86644655 89.90245046 -2.66796875 85.66015625 C-4.05730543 82.86654379 -5.86072125 80.56867087 -7.7578125 78.09375 C-13.33421519 70.5718486 -16.45683408 63.9055413 -15.7578125 54.46875 C-16.6859375 54.035625 -16.6859375 54.035625 -17.6328125 53.59375 C-19.7578125 52.46875 -19.7578125 52.46875 -21.7578125 50.46875 C-23.82655284 49.8262265 -23.82655284 49.8262265 -25.7578125 49.46875 C-25.84513976 45.57305865 -25.89831435 41.67762018 -25.9453125 37.78125 C-25.97044922 36.67845703 -25.99558594 35.57566406 -26.02148438 34.43945312 C-26.03115234 33.37275391 -26.04082031 32.30605469 -26.05078125 31.20703125 C-26.0664917 30.22774658 -26.08220215 29.24846191 -26.09838867 28.23950195 C-25.70130463 25.0090311 -24.49604196 23.17988649 -22.7578125 20.46875 C-23.14184055 18.41170318 -23.14184055 18.41170318 -23.7578125 16.46875 C-22.30655144 11.91018764 -19.68782476 7.2428763 -15.7578125 4.46875 C-13.7578125 4.46875 -11.7578125 4.46875 -9.7578125 4.46875 C-8.9534375 3.80875 -8.1490625 3.14875 -7.3203125 2.46875 C-4.70893796 0.43060402 -3.30253368 -0.17613513 0 0 Z " fill="#A98B66" transform="translate(412.7578125,766.53125)"/>
<path d="M0 0 C0.99 0.99 0.99 0.99 2 2 C7.04908351 2.25570488 7.04908351 2.25570488 12 1.5 C22.65451068 -1.16362767 37.56203749 2.84542047 47 8 C49.06423729 9.55756087 50.37834954 10.94590942 52 13 C52 13.66 52 14.32 52 15 C52.94875 15.0825 53.8975 15.165 54.875 15.25 C62.67160929 16.38865288 69.38709402 19.51762672 75 25 C75.70125 25.94875 76.4025 26.8975 77.125 27.875 C81.46192752 33.35993775 88.71907764 36.30029994 94.8125 39.45703125 C97 41 97 41 98 45 C95.03 46.32 92.06 47.64 89 49 C88.25854518 53.69588054 89.52603604 56.15548323 92 60 C94.43767963 63.83804878 95.99838217 66.3408832 95 71 C94.46375 71.680625 93.9275 72.36125 93.375 73.0625 C92.92125 73.701875 92.4675 74.34125 92 75 C93.15578169 78.49698049 94.80223096 81.76649044 96.4375 85.0625 C96.84871094 85.89910156 97.25992188 86.73570312 97.68359375 87.59765625 C98.95272156 89.91372035 100.3623548 91.93265197 102 94 C100.90300781 94.06058594 99.80601562 94.12117187 98.67578125 94.18359375 C97.22134346 94.26804498 95.76691695 94.35269066 94.3125 94.4375 C93.59126953 94.47681641 92.87003906 94.51613281 92.12695312 94.55664062 C88.32221858 94.78249245 84.73500439 95.20518073 81 96 C79.5245091 96.1334357 78.04367341 96.21831715 76.5625 96.25 C75.84191406 96.27578125 75.12132812 96.3015625 74.37890625 96.328125 C72 96 72 96 69.43359375 94.46875 C64.40463447 92.31756833 59.88201179 92.8893848 54.5 93.25 C53.48035156 93.30285156 52.46070313 93.35570312 51.41015625 93.41015625 C47.36709176 93.63623138 43.48173716 93.90806132 39.5 94.66796875 C36.6302765 95.0491039 35.79549039 94.73348197 33.5 93.0625 C30.14025217 90.94792187 28.04015333 90.32664111 24 91 C22.36546207 91.98072276 20.73241588 92.96435272 19.1171875 93.9765625 C14.71378903 96.10514257 9.80984724 96.44653813 5 97 C3.80375 97.165 2.6075 97.33 1.375 97.5 C-3.03032692 96.84735898 -5.97063398 94.91835832 -9.66796875 92.5078125 C-11.7317808 91.17342146 -13.78174612 90.05048345 -16 89 C-16.99 89.66 -17.98 90.32 -19 91 C-23.64571174 91.40751857 -27.04801538 91.09057997 -31.4375 89.5625 C-36.17542914 87.99296929 -40.61752235 87.64832406 -45.5625 87.4375 C-60.78522891 86.77181687 -60.78522891 86.77181687 -65.1875 83.25 C-65.785625 82.8375 -66.38375 82.425 -67 82 C-69.89992799 82.79950593 -69.89992799 82.79950593 -73 84 C-81.21332306 85.26358816 -86.86251138 80.13865205 -93.3125 75.75 C-95.84188716 73.93905408 -95.84188716 73.93905408 -98.37890625 73.21875 C-101.75286551 71.64993437 -103.31758048 69.65211528 -105.625 66.75 C-106.38039062 65.81671875 -107.13578125 64.8834375 -107.9140625 63.921875 C-112.6810777 57.24448292 -114.02963395 52.09157985 -113 44 C-111.58070404 39.35945881 -109.82177088 35.12373054 -106 32 C-103.202946 30.7116096 -100.3643486 29.59643889 -97.49609375 28.4765625 C-94.77959634 27.21735107 -94.77959634 27.21735107 -94.0078125 24.43359375 C-93.67523438 23.63050781 -93.34265625 22.82742188 -93 22 C-90.49609375 20.99609375 -90.49609375 20.99609375 -87.4375 20.4375 C-82.75224889 19.55406514 -78.81080062 18.13454208 -74.51000977 16.15258789 C-34.42018706 -2.25652144 -34.42018706 -2.25652144 -18.47265625 1.61328125 C-15.2702585 2.11413019 -13.03431329 1.40829416 -9.9375 0.5 C-3.42746721 -1.40457454 -3.42746721 -1.40457454 0 0 Z " fill="#A98B66" transform="translate(351,915)"/>
<path d="M0 0 C2.125 0.375 2.125 0.375 4 1 C4.9375 3.0625 4.9375 3.0625 5 6 C3.54951318 7.85527384 1.89329678 9.3360564 0.15234375 10.921875 C-2.25672456 13.24787199 -4.24768611 15.73969386 -6.3125 18.375 C-17.67739328 32.464354 -17.67739328 32.464354 -25 34 C-26.05021103 35.84971696 -26.05021103 35.84971696 -27 38 C-27.680625 38.639375 -28.36125 39.27875 -29.0625 39.9375 C-31.22614111 41.85805191 -31.22614111 41.85805191 -31.4375 44.625 C-31.623125 45.40875 -31.80875 46.1925 -32 47 C-33.66072849 47.68132451 -35.327767 48.34742127 -37 49 C-37.28746094 49.83144531 -37.57492187 50.66289063 -37.87109375 51.51953125 C-38.24363281 52.33808594 -38.61617187 53.15664062 -39 54 C-41.0390625 54.57421875 -41.0390625 54.57421875 -43.625 54.6875 C-51.64324056 55.73889843 -57.7181203 60.42378068 -64.25170898 64.88671875 C-68.08873889 67.33007252 -70.66237392 68.245727 -75.25 68.125 C-76.14203125 68.10695313 -77.0340625 68.08890625 -77.953125 68.0703125 C-78.62859375 68.04710937 -79.3040625 68.02390625 -80 68 C-80.3403125 69.60875 -80.3403125 69.60875 -80.6875 71.25 C-82.19499782 75.55713663 -83.08158573 76.74899606 -87 79 C-92.06810044 80.57858866 -96.63807946 81.05527578 -101.94140625 81.234375 C-108.8635979 81.48933602 -114.93291177 81.72352796 -120 87 C-122.02212048 90.11720751 -122.02212048 90.11720751 -123 93 C-123.94875 92.835 -124.8975 92.67 -125.875 92.5 C-132.7317973 91.55376197 -139.18940517 91.79056188 -146 93 C-151.45846241 93.89355612 -156.79220602 94.28413096 -162.3125 94.375 C-163.05306641 94.40078125 -163.79363281 94.4265625 -164.55664062 94.453125 C-170.11376063 94.47302516 -174.36367477 93.09791131 -179 90 C-179.7425 89.154375 -180.485 88.30875 -181.25 87.4375 C-185.5354387 83.63904297 -190.49798318 83.17856054 -196 82 C-214.24864381 77.61737919 -214.24864381 77.61737919 -219.75 72.3125 C-221.71586441 68.67565084 -222.98294955 65.00215955 -224 61 C-224.17789063 60.30132813 -224.35578125 59.60265625 -224.5390625 58.8828125 C-224.8125 56.875 -224.8125 56.875 -224 53 C-213.30950448 40.98591932 -193.62593716 39.15479925 -178.7265625 37.640625 C-166.27384439 36.36324424 -166.27384439 36.36324424 -155.1875 31 C-148.81670603 26.6947678 -143.80432075 24.42190217 -136 25 C-134.66666667 25.66666667 -133.33333333 26.33333333 -132 27 C-128.23492278 26.52776998 -125.35372337 25.28537313 -122 23.5625 C-112.29329796 19.05952459 -102.00232185 18.88325872 -91.46484375 18.28515625 C-87.15191342 17.93020257 -83.19610921 17.03183013 -79 16 C-77.68 16 -76.36 16 -75 16 C-75 15.34 -75 14.68 -75 14 C-70.94315571 13.42045082 -67.47110307 12.95938767 -63.375 13.3125 C-57.92839616 13.44115993 -53.33340794 10.6160288 -48.4921875 8.3984375 C-44.53184833 6.81252987 -41.12326 6.2526299 -36.890625 6.10546875 C-34.91017647 6.12038035 -34.91017647 6.12038035 -33 5 C-31.44157857 4.88335764 -29.87885337 4.82133896 -28.31640625 4.7890625 C-26.92518555 4.74652344 -26.92518555 4.74652344 -25.50585938 4.703125 C-23.54771536 4.65115037 -21.58935232 4.60684668 -19.63085938 4.5703125 C-18.70208984 4.539375 -17.77332031 4.5084375 -16.81640625 4.4765625 C-15.96506104 4.45674316 -15.11371582 4.43692383 -14.23657227 4.41650391 C-11.53921843 3.91419132 -10.87672698 2.90476669 -9 1 C-6.66055264 1.28730055 -4.3260857 1.61936779 -2 2 C-1.34 1.34 -0.68 0.68 0 0 Z " fill="#FAF1E3" transform="translate(461,1044)"/>
<path d="M0 0 C2.97 0.495 2.97 0.495 6 1 C7.77118426 13.23027857 9.400322 25.2894421 9.06445312 37.66918945 C8.6355088 46.62865814 8.6355088 46.62865814 11.09423828 55.02905273 C12.57460595 58.25034874 11.10981739 60.79386087 10 64 C11.485 64.495 11.485 64.495 13 65 C11.95859705 67.16291382 10.91978249 69.11167121 9.515625 71.06640625 C7.46078638 75.04368409 7.10746137 78.84532401 6.5625 83.25 C5.3671446 91.76690722 3.80445898 99.32487218 -2 106 C-1.2265625 107.2375 -1.2265625 107.2375 -0.4375 108.5 C1.29397714 112.71577042 1.39749539 115.7372487 0 120 C-3.11227005 125.84981862 -7.45915746 130.99192556 -11.58203125 136.15234375 C-13.92786168 139.20903189 -14.13628311 141.07259199 -14.125 144.875 C-14.12757813 145.73867187 -14.13015625 146.60234375 -14.1328125 147.4921875 C-14.01023921 149.80665971 -13.64966445 151.78289116 -13 154 C-13.49886719 154.34546875 -13.99773437 154.6909375 -14.51171875 155.046875 C-21.52133928 160.5337593 -25.7603662 167.33906105 -30.39331055 174.85253906 C-35.16896319 182.55279347 -40.89876183 190.31099781 -50 193 C-51.37499744 193.04175093 -52.74999776 193.08340741 -54.125 193.125 C-60.6617609 193.72221237 -65.0247145 198.0588218 -70 202 C-84.2255048 212.59703989 -84.2255048 212.59703989 -92.41796875 211.75 C-94.76981558 211.03756447 -96.8132252 210.11724313 -99 209 C-99.77085937 208.68933594 -100.54171875 208.37867188 -101.3359375 208.05859375 C-103.71383225 206.92805081 -105.26129858 205.98184436 -107 204 C-109.83094246 193.71829486 -104.23326876 181.85458962 -99.375 173.0625 C-96.44589809 168.04588742 -93.16222218 163.32216468 -89.75 158.625 C-83.65135008 150.20229464 -80.57678599 143.42767995 -78.56884766 133.25268555 C-77.43148725 127.79047777 -75.88860051 122.09027421 -71.1484375 118.66015625 C-66.22222222 117 -66.22222222 117 -64 117 C-63.99742187 116.33355469 -63.99484375 115.66710938 -63.9921875 114.98046875 C-63.45519177 102.18207043 -56.15528724 93.78300079 -48.75439453 83.92480469 C-45.18624754 79.03948767 -42.61509137 74.39380417 -40.625 68.6875 C-38.3994911 62.36060007 -36.6336866 60.40147116 -31 57 C-29.16041582 53.71502825 -28.22438209 50.91864666 -27.3359375 47.28125 C-25.87076556 41.29175592 -24.6906193 38.22155737 -20 34 C-19.29632192 32.29841587 -18.59377695 30.59633721 -17.90136719 28.89013672 C-16.08742518 25.08636126 -13.2004909 22.005184 -10.49609375 18.80664062 C-7.60392358 15.24077503 -6.34496215 12.58799665 -6 8 C-4.68 8 -3.36 8 -2 8 C-1.34 5.36 -0.68 2.72 0 0 Z " fill="#FAF2E4" transform="translate(510,1041)"/>
<path d="M0 0 C5.74406937 1.26115176 10.27912352 4.32249143 15.01953125 7.6953125 C18.55004012 10.02113097 21.57608542 10.10259973 25.6875 10.25 C31.72645256 10.72293002 35.32380888 12.24888147 40 16 C40.59296875 16.44472656 41.1859375 16.88945313 41.796875 17.34765625 C47.60092124 21.95750714 51.71111614 27.87879473 56.0625 33.8125 C57.96147375 36.22518341 57.96147375 36.22518341 61.1875 37.625 C64 40 64 40 64.2890625 42.34375 C64.30066406 43.72046875 64.30066406 43.72046875 64.3125 45.125 C64.55179322 52.58297208 68.94026986 56.01680359 74 61 C78.23992737 65.9656807 80.29722891 68.8433577 79.8125 75.4375 C79.73644531 76.36433594 79.66039062 77.29117188 79.58203125 78.24609375 C79.7521637 81.21829939 79.7521637 81.21829939 82.3515625 83.3203125 C85.76532228 86.77435263 86.45038567 89.81640401 87.5625 94.4375 C88.965611 100.11439788 90.53765042 104.25979356 94 109 C95.10282615 112.0327719 95.08232873 114.78917972 95 118 C95 118.99 95 119.98 95 121 C94.98839844 121.84433594 94.97679687 122.68867187 94.96484375 123.55859375 C94.95582031 124.50863281 94.94679688 125.45867187 94.9375 126.4375 C94.92589844 127.38496094 94.91429687 128.33242188 94.90234375 129.30859375 C94.88452204 131.86539653 94.88452204 131.86539653 95.5 133.70629883 C96.20810801 136.95467519 96.11084064 140.06815795 96.09765625 143.390625 C96.0962413 144.09523865 96.09482635 144.79985229 96.09336853 145.52581787 C96.08778933 147.76725584 96.07524073 150.00859243 96.0625 152.25 C96.05748231 153.77343605 96.05291987 155.29687368 96.04882812 156.8203125 C96.03782674 160.54690772 96.02057646 164.27344396 96 168 C94.35 168 92.7 168 91 168 C90.731875 167.195625 90.46375 166.39125 90.1875 165.5625 C89.795625 164.716875 89.40375 163.87125 89 163 C88.01 162.67 87.02 162.34 86 162 C85.73316406 161.28070312 85.46632813 160.56140625 85.19140625 159.8203125 C83.55992865 155.95825733 80.96013921 153.71027093 77.9375 150.875 C72.12733183 145.38199548 72.12733183 145.38199548 71 142 C70.39027344 141.5875 69.78054688 141.175 69.15234375 140.75 C65.7491334 137.98296146 64.44679567 134.030759 62.73242188 130.09375 C60.73670841 125.78264358 58.97665755 124.37023339 55 122 C53.24628448 119.65696713 51.86969187 117.11102898 50.4375 114.5625 C47.08008496 108.86582854 43.5562083 104.10905482 38.75 99.5625 C31.17934167 92.37784367 26.6549183 86.42598526 25 76 C24.13375 76.165 23.2675 76.33 22.375 76.5 C18.4998125 75.92589815 18.1208306 75.46206834 15.8125 72.5 C13.12546379 68.52542561 11.44069452 64.55188761 10 60 C8.19780457 54.31939568 6.50174011 51.11028445 2 47 C-3.982628 40.73623346 -9.25891809 34.24743511 -14 27 C-14.61875 26.12794922 -14.61875 26.12794922 -15.25 25.23828125 C-18.5986051 20.15381835 -20.31980585 14.0678953 -20 8 C-18.14154138 5.16883936 -15.90661471 3.66605956 -13 2 C-8.70912861 -0.86058092 -5.0342959 -0.47337409 0 0 Z " fill="#FAF1E3" transform="translate(422,788)"/>
<path d="M0 0 C18.65982561 2.07098961 40.92646776 6.88102038 55 20 C55.67101372 21.66492126 56.33797584 23.33148382 57 25 C58.96011672 26.56823162 58.96011672 26.56823162 61.375 27.75 C72.6363609 34.09879622 83.63186091 41.38093152 88 54 C88 54.99 88 55.98 88 57 C80.70726916 57.25147348 80.70726916 57.25147348 77.1875 56 C72.56440958 54.54961869 67.80235972 54.29887056 63 55 C61.35177757 56.47082673 61.35177757 56.47082673 60 58 C58.84242188 57.50757813 57.68484375 57.01515625 56.4921875 56.5078125 C50.20331517 54.42457764 43.90217072 54.70034348 37.36172485 54.83190918 C33.48758854 54.90654496 29.6130034 54.92125096 25.73828125 54.9453125 C24.53866005 54.95461792 24.53866005 54.95461792 23.31480408 54.96411133 C15.3878428 55.02048612 7.46601019 54.96732312 -0.45928955 54.79449463 C-1.91664409 54.76539305 -3.37415458 54.74310042 -4.83172607 54.72845459 C-17.97906762 54.59072382 -29.936238 52.42806241 -42 47 C-42 47.66 -42 48.32 -42 49 C-42.80050781 48.67 -43.60101563 48.34 -44.42578125 48 C-48.81374413 46.77232951 -52.66712761 46.85335369 -57.1875 47 C-58.78488314 47.0510754 -60.38258721 47.09312206 -61.98046875 47.125 C-63.03077271 47.15980469 -63.03077271 47.15980469 -64.10229492 47.1953125 C-66 47 -66 47 -69 45 C-70.4262889 44.65769067 -71.86627848 44.36978361 -73.3125 44.125 C-76.63306947 43.45553035 -78.16330476 42.89001924 -81.0625 40.9375 C-84.85745396 38.43444526 -87.50669547 38.30988307 -92 38 C-94.28571429 29.57142857 -94.28571429 29.57142857 -94 25 C-86.94928427 21.66018728 -79.74171884 19.09961072 -72.31542969 16.74023438 C-70.68873079 16.22018471 -69.06458214 15.69212287 -67.44238281 15.15820312 C-48.17605225 8.82615489 -29.09525279 4.9555407 -8.82788086 3.77026367 C-7.96042236 3.7107251 -7.09296387 3.65118652 -6.19921875 3.58984375 C-5.43440186 3.54722412 -4.66958496 3.50460449 -3.8815918 3.46069336 C-1.59540685 3.12572639 -1.59540685 3.12572639 0 0 Z " fill="#F9F1E3" transform="translate(351,930)"/>
<path d="M0 0 C3.63 0.33 7.26 0.66 11 1 C11.40429113 15.64432326 10.45509059 29.56133684 8 44 C7.81775879 45.08635742 7.63551758 46.17271484 7.44775391 47.29199219 C3.41530241 70.88031746 3.41530241 70.88031746 -1.1796875 80.38671875 C-2.2703118 83.08666893 -2.2703118 83.08666893 -1.2421875 86.25390625 C-0.87316182 91.96190017 -3.82189085 94.89714325 -7.25 99.25 C-7.89026123 100.08684326 -8.53052246 100.92368652 -9.19018555 101.78588867 C-16.22798415 110.83423668 -24.313129 121.17248241 -35 126 C-36.093125 126.11472656 -37.18625 126.22945312 -38.3125 126.34765625 C-42.93334305 127.16511471 -45.53748218 129.07660146 -49.25 131.8125 C-58.16347292 138.03935822 -65.92185351 141.72643584 -77 141 C-76.47540137 136.8396414 -75.26979581 134.79216867 -72.5 131.6875 C-68.94258537 127.32091933 -68 124.60973422 -68 119 C-68.33 118.01 -68.66 117.02 -69 116 C-68.113125 115.401875 -67.22625 114.80375 -66.3125 114.1875 C-60.16231444 109.02134413 -58.16188336 100.75802628 -56 93.3125 C-54.6533971 88.72546621 -53.10690994 85.3050966 -50.4140625 81.40625 C-48.41452935 78.0037295 -47.02435529 74.40961594 -45.5625 70.75 C-41.14802547 59.80797806 -36.78064251 50.29579861 -28.85546875 41.375 C-27.04675183 39.05984234 -26.58881488 37.78785823 -26 35 C-25.236875 34.34 -24.47375 33.68 -23.6875 33 C-20.12459356 29.73400243 -19.33021487 25.37262854 -18.08984375 20.83984375 C-16.87699585 17.67948381 -15.51966979 16.21381392 -13 14 C-12.21625 13.195625 -11.4325 12.39125 -10.625 11.5625 C-8.72032617 9.70317555 -6.8836649 8.0803218 -4.8125 6.4375 C-1.71414688 4.06665212 -1.71414688 4.06665212 0 0 Z " fill="#FAF1E3" transform="translate(1721,780)"/>
<path d="M0 0 C2.43359375 0.97265625 2.43359375 0.97265625 4.4375 2.0625 C5.45650391 2.60583984 5.45650391 2.60583984 6.49609375 3.16015625 C7.24052734 3.57587891 7.24052734 3.57587891 8 4 C8.5656495 24.86618155 9.03893627 49.60345643 -6.125 66 C-8.0078125 67.8125 -8.0078125 67.8125 -10 69 C-10.80179688 68.95875 -11.60359375 68.9175 -12.4296875 68.875 C-16.23898484 69.06025458 -17.41182367 71.31093524 -20 74 C-23.26171875 75.80078125 -23.26171875 75.80078125 -26.6875 77.3125 C-27.82574219 77.82425781 -28.96398438 78.33601562 -30.13671875 78.86328125 C-33 80 -33 80 -35 80 C-35.66 79.01 -36.32 78.02 -37 77 C-39.609621 76.61588725 -42.0058074 76.39706803 -44.625 76.3125 C-45.33140625 76.27833984 -46.0378125 76.24417969 -46.765625 76.20898438 C-48.50985688 76.12648692 -50.25490395 76.06156665 -52 76 C-52.33 75.01 -52.66 74.02 -53 73 C-53.83144531 72.96261719 -54.66289063 72.92523437 -55.51953125 72.88671875 C-56.60621094 72.82097656 -57.69289063 72.75523437 -58.8125 72.6875 C-59.89144531 72.62949219 -60.97039062 72.57148437 -62.08203125 72.51171875 C-65 72 -65 72 -66.8984375 70.58203125 C-68 69 -68 69 -67.8125 67 C-67 65 -67 65 -65 62 C-64.66366514 58.93466963 -64.55845054 55.89340766 -64.44140625 52.8125 C-64 50 -64 50 -62.71484375 48.125 C-61 47 -61 47 -57 47 C-55.01189485 45.5788287 -55.01189485 45.5788287 -53.14038086 43.56274414 C-52.39537827 42.81098404 -51.65037567 42.05922394 -50.88279724 41.28468323 C-50.08487259 40.45983932 -49.28694794 39.63499542 -48.46484375 38.78515625 C-47.6309462 37.94085556 -46.79704865 37.09655487 -45.93788147 36.22666931 C-43.26146206 33.51455744 -40.59868299 30.78955743 -37.9375 28.0625 C-8.48059828 -2.01511518 -8.48059828 -2.01511518 0 0 Z " fill="#FAF2E4" transform="translate(1507,938)"/>
<path d="M0 0 C5.74119069 5.74119069 5.59087622 14.69896664 5.640625 22.33618164 C5.4344963 28.54001145 3.74156909 31.98496756 -0.34375 36.71875 C-2.29398395 39.40492129 -2.54392278 41.16351417 -2.875 44.4375 C-3.47036473 49.40810318 -5.04858581 51.47960337 -8.5 55.0625 C-12.98510468 60.01598586 -13.68874758 63.52662924 -14 69.9375 C-14.41618893 77.86226055 -16.32951922 82.01166917 -21.6328125 88.13671875 C-24.12981237 91.15701727 -25.79811947 94.13282748 -27.5625 97.625 C-29.76478679 101.91689845 -32.08693364 105.55449102 -35.1875 109.25 C-38.18783655 112.83548822 -40.14201294 116.05587882 -41.87890625 120.37109375 C-43.39417009 123.92430826 -45.14655716 127.32908401 -46.9375 130.75 C-47.26169922 131.38832764 -47.58589844 132.02665527 -47.91992188 132.68432617 C-51.17881436 138.86277816 -55.4680845 142.7906242 -61.25 146.6875 C-66.20907962 150.20212287 -69.92158906 154.11877039 -73.8515625 158.72265625 C-76.89666822 161.95046831 -80.11951054 163.88336939 -84 166 C-82.81397449 159.00244952 -80.42638004 153.20468829 -77.33984375 146.8203125 C-75.5290594 143.00869064 -74.91984336 140.13185239 -74.75390625 135.96875 C-74.21350523 129.63804051 -72.00989378 124.98794856 -68.9375 119.5 C-68.44088867 118.5814624 -67.94427734 117.6629248 -67.43261719 116.71655273 C-64.26913478 110.96935574 -60.82748527 105.76069733 -56.828125 100.56640625 C-50.64854885 91.89123203 -46.94986595 81.55948082 -42.91455078 71.76782227 C-40.4289962 65.81735385 -37.54404206 60.39352849 -34 55 C-30.7703132 49.8172827 -27.77668352 44.62903497 -25.125 39.125 C-21.95786192 32.68378151 -18.09900514 26.88020919 -14 21 C-13.22111277 19.87907395 -12.44247223 18.75797644 -11.6640625 17.63671875 C-10.1286546 15.42504559 -8.59206217 13.21421482 -7.0546875 11.00390625 C-4.58858435 7.3985197 -2.2685507 3.7321318 0 0 Z " fill="#F9F1E3" transform="translate(735,817)"/>
<path d="M0 0 C1.8125 0.1875 1.8125 0.1875 4 1 C6.60551017 4.65837618 7.75306851 8.14605431 8.75 12.5 C9.14445313 14.15515625 9.14445313 14.15515625 9.546875 15.84375 C10.5190147 22.61520583 7.65733166 26.53464584 4.0625 32 C-1.11305827 39.93536798 -3.21368263 45.22328768 -3.4609375 54.84375 C-4.10312299 58.60379258 -5.46884702 60.21086412 -8 63 C-9.42869737 65.93676682 -10.20740759 68.83626623 -10.9375 72 C-11.77610166 75.44541768 -12.8161981 78.14425905 -15 81 C-15.66386719 81.23203125 -16.32773437 81.4640625 -17.01171875 81.703125 C-19.33492441 82.90875311 -19.33492441 82.90875311 -19.87109375 86.0546875 C-20.15146484 87.94574219 -20.15146484 87.94574219 -20.4375 89.875 C-22.61776515 102.55452389 -27.82124423 115.0125077 -37.19921875 124.140625 C-39.58535433 126.60440057 -39.69572149 128.65293642 -40 132 C-40.58007812 132.08636719 -41.16015625 132.17273438 -41.7578125 132.26171875 C-42.53898438 132.40222656 -43.32015625 132.54273438 -44.125 132.6875 C-45.27355469 132.87892578 -45.27355469 132.87892578 -46.4453125 133.07421875 C-53.58895442 135.66296972 -56.7235697 141.29157361 -60.1875 147.625 C-61.03093956 149.14037549 -61.87845388 150.65349181 -62.73046875 152.1640625 C-63.09551514 152.82873535 -63.46056152 153.4934082 -63.83666992 154.17822266 C-65.06965739 156.10908362 -66.22403231 157.54949182 -68 159 C-71.1875 159.1875 -71.1875 159.1875 -74 159 C-75.37598604 154.87204189 -75.85890526 151.30150927 -75 147 C-73.03544911 143.94526171 -70.58080579 141.53805952 -68 139 C-63.79668705 134.20077433 -61.62096004 131.57002605 -62 125 C-62.92414941 121.72435637 -62.92414941 121.72435637 -64 119 C-63.50371094 118.51273438 -63.00742187 118.02546875 -62.49609375 117.5234375 C-53.06100559 107.6765713 -48.62974752 95.93635135 -45 83 C-43.67756228 78.68816097 -42.00605765 74.83523874 -39.91015625 70.84375 C-39.60998596 70.26829941 -39.30981567 69.69284882 -39.00054932 69.09996033 C-38.02509193 67.23124192 -37.04384808 65.3656306 -36.0625 63.5 C-34.69012946 60.87764455 -33.32103888 58.25358885 -31.953125 55.62890625 C-31.61255569 54.9760817 -31.27198639 54.32325714 -30.9210968 53.65065002 C-28.4183185 48.8396798 -26.00440678 43.98961236 -23.62329102 39.1171875 C-19.59599905 30.88407954 -15.32587606 22.87047736 -10.625 15 C-10.13684814 14.18072021 -9.64869629 13.36144043 -9.14575195 12.51733398 C-6.40116061 8.0116338 -3.48918749 3.9586418 0 0 Z " fill="#FAF1E3" transform="translate(627,800)"/>
<path d="M0 0 C8.25182189 1.45291672 13.61408834 5.35560786 19.921875 10.52734375 C25.29794063 14.84593454 29.01775909 17.44142073 36 18 C36.90336251 25.82914176 33.99290326 31.36042463 30 38 C29.27296875 38.86238281 28.5459375 39.72476563 27.796875 40.61328125 C25.59902438 43.03468272 25.59902438 43.03468272 26 47 C25.26007812 47.4125 24.52015625 47.825 23.7578125 48.25 C19.85756482 50.7249447 18.73089 53.87743012 16.875 58 C16.2113272 59.44009309 15.54223096 60.87770175 14.8671875 62.3125 C14.43575439 63.26576172 14.43575439 63.26576172 13.99560547 64.23828125 C12.86944869 66.23100987 11.78168727 67.5602085 10 69 C6.54697455 69.26060569 3.59026054 69.13309796 0.2109375 68.37109375 C-3.68472205 67.92086546 -6.32574146 68.66178981 -10.0625 69.8125 C-11.24972656 70.16957031 -12.43695312 70.52664063 -13.66015625 70.89453125 C-16.49381249 71.8324549 -19.247027 72.84989219 -22 74 C-22.33 73.34 -22.66 72.68 -23 72 C-26.54518884 73.39759905 -26.54518884 73.39759905 -30 75 C-29.80664062 74.36578125 -29.61328125 73.7315625 -29.4140625 73.078125 C-27.29736131 65.4915326 -26.38448597 58.1485633 -25.91064453 50.29589844 C-25.45739569 44.35539545 -24.18119477 39.11102546 -21 34 C-19.41333008 32.72436523 -19.41333008 32.72436523 -17.75 31.625 C-14.7548273 29.34674649 -14.7548273 29.34674649 -14.79296875 26.53515625 C-14.84066406 25.59542969 -14.88835938 24.65570312 -14.9375 23.6875 C-15.23737227 17.62521739 -13.93303009 14.55539969 -10 10 C-6.76092365 6.56311746 -3.42784091 3.24812886 0 0 Z " fill="#FAF1E3" transform="translate(819,960)"/>
<path d="M0 0 C2.82957829 0.36276645 5.29084291 1.09694764 8 2 C10.73865287 2.07051114 13.45027588 2.09357765 16.1875 2.0625 C17.31188477 2.05573242 17.31188477 2.05573242 18.45898438 2.04882812 C20.30602383 2.03706354 22.15302213 2.01912865 24 2 C23.93039062 2.59167969 23.86078125 3.18335938 23.7890625 3.79296875 C23.61662025 6.30980441 23.57984405 8.50847524 24 11 C26.800674 13.80618008 26.800674 13.80618008 30 16 C31.3125 18.625 31.3125 18.625 32 21 C32.495 22.485 32.495 22.485 33 24 C30.38340697 26.5119293 29.13559064 26.99048487 25.4375 27.25 C22 27 22 27 19 26 C18.01 26.33 17.02 26.66 16 27 C16 25.68 16 24.36 16 23 C15.38125 23.33 14.7625 23.66 14.125 24 C9.69758124 25.416774 5.60685063 25.59394107 1 25 C-3.68831619 22.4995647 -6.99883747 17.9033224 -9 13 C-8.39693019 7.87390665 -5.74321045 5.36888941 -2 2 C-1.34 1.34 -0.68 0.68 0 0 Z " fill="#F9F0E2" transform="translate(472,965)"/>
<path d="M0 0 C3.99364751 0.59165148 6.15864779 2.15864779 9 5 C11.18082095 8.57798993 13.12142284 12.25575687 15 16 C13.77990234 16.7115625 13.77990234 16.7115625 12.53515625 17.4375 C9.36152626 20.64536021 9.46122668 22.21743483 9.40039062 26.5546875 C9.41263672 27.36164062 9.42488281 28.16859375 9.4375 29 C9.52338145 37.2710441 9.52338145 37.2710441 7.16015625 40.5625 C5 42 5 42 2 42 C0.421875 40.3125 0.421875 40.3125 -1.25 38 C-4.19982475 34.02715092 -7.30601935 30.30385745 -10.6171875 26.62890625 C-13.03922928 23.77582313 -13.63085864 21.10819636 -13.6171875 17.35546875 C-12.50765848 13.12100042 -9.37017935 10.4397729 -6.359375 7.39453125 C-4.04783209 5.04854482 -2.01504809 2.60200017 0 0 Z " fill="#B06D71" transform="translate(1374,850)"/>
<path d="M0 0 C2.50696229 0.95091673 3.94401245 1.93801378 5.75 3.9375 C8.82718367 11.47659998 6.91722506 19.37950971 5.1875 27.0625 C5.02241943 27.81305664 4.85733887 28.56361328 4.68725586 29.33691406 C3.37035886 34.75309409 3.37035886 34.75309409 0 37 C-7.84522003 37.57056146 -7.84522003 37.57056146 -11 35 C-11.268125 34.13375 -11.53625 33.2675 -11.8125 32.375 C-13.26435854 28.2486652 -15.50724864 26.01100036 -18.5390625 22.9296875 C-20 21 -20 21 -20 17 C-18.2365625 16.7834375 -18.2365625 16.7834375 -16.4375 16.5625 C-10.58846026 15.12607505 -8.25943761 10.72302003 -5 6 C-4.03613987 4.80004281 -3.05907183 3.61043145 -2.0625 2.4375 C-1.381875 1.633125 -0.70125 0.82875 0 0 Z " fill="#F9EFE1" transform="translate(854,922)"/>
<path d="M0 0 C0.556875 0.721875 1.11375 1.44375 1.6875 2.1875 C3.98012133 4.97582324 6.41439881 7.48427992 9 10 C9.33 10.33 9.66 10.66 10 11 C15.03761016 11.31718286 20.09961113 11.30677037 25 10 C25.3046875 12.265625 25.3046875 12.265625 25 15 C22.8828125 16.984375 22.8828125 16.984375 20.125 18.75 C19.22007812 19.34296875 18.31515625 19.9359375 17.3828125 20.546875 C13.24267402 23.07168076 9.82709311 23.66580595 5 23 C1.94066776 21.24251127 0.34140803 20.22176837 -0.62109375 16.77734375 C-1.05813033 13.57391065 -1.13231421 10.48287863 -1.125 7.25 C-1.12757813 6.10015625 -1.13015625 4.9503125 -1.1328125 3.765625 C-1 1 -1 1 0 0 Z " fill="#A98A66" transform="translate(463,978)"/>
<path d="M0 0 C4 4.75 4 4.75 4 7 C2.35 7.66 0.7 8.32 -1 9 C-2.35439668 6.29120665 -2.06501451 3.99066732 -2 1 C-1.34 0.67 -0.68 0.34 0 0 Z " fill="#EFE1D3" transform="translate(538,919)"/>
<path d="M0 0 C0.66 0.33 1.32 0.66 2 1 C-0.31 3.31 -2.62 5.62 -5 8 C-5.33 7.34 -5.66 6.68 -6 6 C-4 4 -2 2 0 0 Z " fill="#B29979" transform="translate(345,1127)"/>
</svg>
