<svg xmlns="http://www.w3.org/2000/svg" viewBox="0 0 512 512">
  <rect width="512" height="512" rx="120" fill="#fff7f2"/>
  <circle cx="256" cy="256" r="188" fill="#f8d8df"/>
  <path d="M256 112c26 56 37 91 37 117 0 24-16 41-37 41s-37-17-37-41c0-26 11-61 37-117Z" fill="#cb6f86"/>
  <path d="M393 223c-58 17-95 22-117 16-23-7-34-26-28-46 7-20 30-31 54-24 23 6 53 24 91 54Z" fill="#d39a4a"/>
  <path d="M119 223c38-30 68-48 91-54 24-7 47 4 54 24 6 20-5 39-28 46-22 6-59 1-117-16Z" fill="#d39a4a"/>
  <path d="M338 345c-23-55-44-86-62-98-18-12-40-8-49 9-10 17-5 42 13 55 17 12 50 24 98 34Z" fill="#cb6f86"/>
  <path d="M174 345c48-10 81-22 98-34 18-13 23-38 13-55-9-17-31-21-49-9-18 12-39 43-62 98Z" fill="#cb6f86"/>
</svg>
